<?xml version="1.0" encoding="utf-8"?>
<svg xmlns="http://www.w3.org/2000/svg" xmlns:xlink="http://www.w3.org/1999/xlink" id="Ebene_1" data-name="Ebene 1" viewBox="0 0 304.42 134.72">
  <defs>
    <style>
      .cls-1 {
        stroke-width: 0px;
      }

      .cls-1, .cls-2, .cls-3, .cls-4, .cls-5, .cls-6, .cls-7, .cls-8 {
        fill: none;
      }

      .cls-2 {
        stroke-width: .57px;
      }

      .cls-2, .cls-3, .cls-9, .cls-4, .cls-10, .cls-5, .cls-6, .cls-7, .cls-8 {
        stroke-linejoin: round;
      }

      .cls-2, .cls-3, .cls-9, .cls-4, .cls-10, .cls-6, .cls-7, .cls-8 {
        stroke: #1d1d1b;
      }

      .cls-2, .cls-3, .cls-9, .cls-10, .cls-5, .cls-6, .cls-7, .cls-8 {
        stroke-linecap: round;
      }

      .cls-3 {
        stroke-width: .57px;
      }

      .cls-9 {
        fill: url(#Neues_Muster);
      }

      .cls-9, .cls-10, .cls-7 {
        stroke-width: .28px;
      }

      .cls-4 {
        stroke-linecap: square;
        stroke-width: .1px;
      }

      .cls-10 {
        fill: url(#Neues_Muster-2);
      }

      .cls-5 {
        stroke: #000;
        stroke-width: .85px;
      }

      .cls-6 {
        stroke-width: .43px;
      }

      .cls-8 {
        stroke-width: .28px;
      }
    </style>
    <pattern id="Neues_Muster" data-name="Neues Muster" x="0" y="0" width="5.55" height="7.33" patternTransform="translate(-2545.4 -2536.78) scale(.71)" patternUnits="userSpaceOnUse" viewBox="0 0 5.55 7.33">
      <g>
        <rect class="cls-1" x="0" width="5.55" height="7.33"/>
        <path class="cls-4" d="M.75.78"/>
        <line class="cls-4" x1=".73" y1=".05" x2=".73" y2="7.28"/>
        <line class="cls-4" x1="1.41" y1=".05" x2="1.41" y2="7.28"/>
        <line class="cls-4" x1="2.09" y1=".05" x2="2.09" y2="7.28"/>
        <line class="cls-4" x1="2.78" y1=".05" x2="2.78" y2="7.28"/>
        <line class="cls-4" x1="3.46" y1=".05" x2="3.46" y2="7.28"/>
        <line class="cls-4" x1="4.14" y1=".05" x2="4.14" y2="7.28"/>
        <line class="cls-4" x1="4.82" y1=".05" x2="4.82" y2="7.28"/>
        <line class="cls-4" x1="5.5" y1=".05" x2="5.5" y2="7.28"/>
        <line class="cls-4" x1="4.14" y1=".78" x2="4.82" y2=".78"/>
        <line class="cls-4" x1="2.78" y1=".78" x2="3.46" y2=".78"/>
        <line class="cls-4" x1="1.42" y1=".78" x2="2.1" y2=".78"/>
        <line class="cls-4" x1=".06" y1=".78" x2=".74" y2=".78"/>
        <line class="cls-4" x1="4.81" y1="1.5" x2="5.5" y2="1.5"/>
        <line class="cls-4" x1="3.45" y1="1.5" x2="4.13" y2="1.5"/>
        <line class="cls-4" x1="2.09" y1="1.5" x2="2.77" y2="1.5"/>
        <line class="cls-4" x1=".73" y1="1.5" x2="1.41" y2="1.5"/>
        <line class="cls-4" x1="4.14" y1="2.22" x2="4.82" y2="2.22"/>
        <line class="cls-4" x1="2.78" y1="2.22" x2="3.46" y2="2.22"/>
        <line class="cls-4" x1="1.42" y1="2.22" x2="2.1" y2="2.22"/>
        <line class="cls-4" x1=".06" y1="2.22" x2=".74" y2="2.22"/>
        <line class="cls-4" x1="4.81" y1="2.94" x2="5.5" y2="2.94"/>
        <line class="cls-4" x1="3.45" y1="2.94" x2="4.13" y2="2.94"/>
        <line class="cls-4" x1="2.09" y1="2.94" x2="2.77" y2="2.94"/>
        <line class="cls-4" x1=".73" y1="2.94" x2="1.41" y2="2.94"/>
        <line class="cls-4" x1="4.14" y1="3.66" x2="4.82" y2="3.66"/>
        <line class="cls-4" x1="2.78" y1="3.66" x2="3.46" y2="3.66"/>
        <line class="cls-4" x1="1.42" y1="3.66" x2="2.1" y2="3.66"/>
        <line class="cls-4" x1=".06" y1="3.66" x2=".74" y2="3.66"/>
        <line class="cls-4" x1="4.81" y1="4.38" x2="5.5" y2="4.38"/>
        <line class="cls-4" x1="3.45" y1="4.38" x2="4.13" y2="4.38"/>
        <line class="cls-4" x1="2.09" y1="4.38" x2="2.77" y2="4.38"/>
        <line class="cls-4" x1=".73" y1="4.38" x2="1.41" y2="4.38"/>
        <line class="cls-4" x1="4.13" y1="5.11" x2="4.82" y2="5.11"/>
        <line class="cls-4" x1="2.77" y1="5.11" x2="3.46" y2="5.11"/>
        <line class="cls-4" x1="1.41" y1="5.11" x2="2.09" y2="5.11"/>
        <line class="cls-4" x1=".05" y1="5.11" x2=".73" y2="5.11"/>
        <line class="cls-4" x1="4.82" y1="5.83" x2="5.5" y2="5.83"/>
        <line class="cls-4" x1="3.46" y1="5.83" x2="4.14" y2="5.83"/>
        <line class="cls-4" x1="2.1" y1="5.83" x2="2.78" y2="5.83"/>
        <line class="cls-4" x1=".74" y1="5.83" x2="1.42" y2="5.83"/>
        <line class="cls-4" x1="4.13" y1="6.55" x2="4.82" y2="6.55"/>
        <line class="cls-4" x1="2.77" y1="6.55" x2="3.46" y2="6.55"/>
        <line class="cls-4" x1="1.41" y1="6.55" x2="2.09" y2="6.55"/>
        <line class="cls-4" x1=".05" y1="6.55" x2=".73" y2="6.55"/>
        <path class="cls-4" d="M5.5,7.27"/>
        <path class="cls-4" d="M4.82,7.27"/>
        <path class="cls-4" d="M4.14,7.27"/>
        <path class="cls-4" d="M3.46,7.27"/>
        <path class="cls-4" d="M2.78,7.27"/>
        <path class="cls-4" d="M2.1,7.27"/>
        <line class="cls-4" x1="4.82" y1="7.27" x2="5.5" y2="7.27"/>
        <line class="cls-4" x1="3.46" y1="7.27" x2="4.14" y2="7.27"/>
        <line class="cls-4" x1="2.1" y1="7.27" x2="2.78" y2="7.27"/>
        <line class="cls-4" x1=".73" y1="7.27" x2="1.41" y2="7.27"/>
      </g>
    </pattern>
    <pattern id="Neues_Muster-2" data-name="Neues Muster" patternTransform="translate(-2545.4 -13695.85) scale(.71 -.71)" xlink:href="#Neues_Muster"/>
  </defs>
  <path class="cls-5" d="M303.87,67.29c-.01-13.36-1.51-22.77-3.37-29.34h.05c-.32-2.62-1.02-5.91-1.78-7.66-.76-1.75-2.59-2.92-2.59-2.92h0c-1.21-2.04-2.19-3.16-2.59-3.73-.4-.59-1.07-1.26-1.88-1.96-.41-.35-.86-.71-1.32-1.07l.04-.04c-.9-1.75-2.65-4.57-5.44-6.53-2.61-1.83-6.87-2.88-6.87-2.88-1.49-.53-8.17-2.21-10.44-2.84-2.26-.62-4.24-1.58-6.06-1.82-1.7-.23-5.13-.25-5.62-.26h0c-.38-.45-1.04-.9-2.15-.97-2.18-.12-13.48-.31-21.23-.31-7.3,0-15.53,0-18.82.35-1.25.13-2.04.42-2.55.71h0c-2.51.09-5.17.23-6.18.39-1.63.25-.77-.09-5.32,2.12-.25.11-.51.23-.77.33h0c-7.12-1.18-12.15-1.07-19.23-.95-7.08.11-35.07,1.68-35.07,1.68h0c-5.7-.13-9.76-.23-9.76-.23h-.04s1.98-5.04,1.98-5.04c1.75-4.07.4-3.81.4-3.81-4.48-.34-7.25.88-9.64,2.87-1.76,1.45-3.63,3.48-5.03,5.13-.16.18-.3.35-.45.52h0s-7.52.09-11.5-.1c-1.53-.08-4.04-.06-5.89-.18-.06,0-.11,0-.17,0-1.59-.05-2.65-.15-3.75-.44-1.11-.28-2.26-.76-4.14-1.39-1.88-.62-6.58-.66-6.58-.66-3.99-.17-13.76.05-21.3-.13-7.54-.18-13.31.06-16.64.23,0,0-.71.01-1.75.05-.13,0-.26,0-.4.01-.23,0-.82,0-1.59.02h-.05c-1.4.03-3.39.07-4.96.18-2.38.21-5.08.66-7.78,1.28h0s-6.57.26-9.53,1.93c-2.96,1.68-5.75,3.54-7.89,6.45-2.14,2.92-6.96,8.91-14.12,21.12,0,0-.54.78-.56,1.58-.02.79-.02,1.38-.3,2.58-.27,1.2-2.79,12.23-2.81,25.76v.15c.02,13.53,2.54,24.56,2.81,25.76.28,1.2.28,1.79.3,2.58.01.8.56,1.58.56,1.58,7.15,12.21,11.98,18.2,14.12,21.12,2.14,2.91,4.93,4.78,7.89,6.45,2.96,1.67,9.53,1.94,9.53,1.94h0c2.7.61,5.41,1.06,7.78,1.27,1.58.11,3.57.16,4.97.18h.04c.77.02,1.36.02,1.59.03.14,0,.28,0,.4.01,1.04.04,1.75.05,1.75.05,3.32.17,9.1.4,16.64.23,7.54-.18,17.31.04,21.3-.13,0,0,4.69-.04,6.58-.66,1.87-.63,3.03-1.11,4.14-1.39,1.1-.29,2.16-.39,3.75-.44.06,0,.11,0,.17,0,1.85-.13,4.36-.11,5.89-.18,3.98-.19,11.5-.1,11.5-.1h0c.14.17.29.34.45.52,1.41,1.64,3.27,3.68,5.03,5.13,2.4,1.98,5.17,3.21,9.64,2.87,0,0,1.36.25-.4-3.81l-1.98-5.03h.04s4.06-.11,9.76-.25h0s28,1.58,35.07,1.69c7.08.12,12.11.23,19.23-.93h0c.26.08.52.2.77.31,4.55,2.21,3.69,1.87,5.32,2.12,1.01.16,3.67.3,6.18.38h0c.5.29,1.29.58,2.55.71,3.29.35,11.52.35,18.82.35,7.76,0,19.05-.19,21.23-.32,1.11-.06,1.77-.52,2.15-.95h0c.49-.01,3.92-.04,5.62-.27,1.82-.24,3.8-1.2,6.06-1.83,2.26-.62,8.94-2.3,10.44-2.84,0,0,4.26-1.05,6.87-2.88,2.79-1.96,4.55-4.78,5.44-6.53l-.04-.04c.47-.36.91-.72,1.32-1.07.81-.69,1.48-1.37,1.88-1.95.4-.57,1.38-1.7,2.59-3.74h0s1.84-1.16,2.59-2.91c.76-1.75,1.46-5.05,1.78-7.64h-.05c1.86-6.59,3.35-15.99,3.37-29.35v-.15Z"/>
  <path class="cls-8" d="M97.82,11.91c0,1.7-3.32,2.9-7.19,2.66-3.87-.23-6.73-1.84-6.63-3.54.05-.86.74-1.55,2-1.86,1.23-.3,3-.27,4.9-.16,1.63.1,3.1.44,4.27.82,1.61.52,2.65,1.18,2.65,2.08Z"/>
  <path class="cls-2" d="M231.12,26.49c-.54-.55-2.03-.93-2.03-.93-1.02-.21-2.03-.4-3.05-.6-7.74-1.54-29.74-3.95-40.08-4.99-.07-.01-.14-.02-.21-.02-.19-.02-.38-.04-.57-.06-10.32-.99-27.18-1.49-36.12-1.7-6.56-.15-22.35.22-31.49.3"/>
  <path class="cls-2" d="M50.02,6.38c.14,0,.28-.01.4-.02,1.04-.03,1.75-.05,1.75-.05,3.32-.17,9.1-.41,16.64-.23,7.54.18,17.3-.04,21.3.13,0,0,4.7.04,6.57.66s3.03,1.11,4.14,1.39,2.16.38,3.75.43c1.87.14,4.48.12,6.06.19,3.98.19,11.5.1,11.5.1"/>
  <path class="cls-2" d="M104.63,20.87c-5.11.13-11.64,1.05-11.64,1.05-21.57,3.41-43.28,8.81-58.61,13.29-11.97,3.49-20.08,6.03-20.84,6.31,0,0-.88.26-1.27.55s-.77.66-1.01,1.59c0,0-2.49,8.85-2.49,23.75"/>
  <path class="cls-6" d="M48.54,6.38c-.05,0-.11.01-.17.02-.77.12-1.98.63-1.98.63-2.24.79-5.06,1.87-7.83,2.99-2.21.89-4.38,1.8-6.21,2.6-3.78,1.67-5.05,3.21-9.65,8.92-4.48,5.55-9.52,18.3-9.52,18.3,0,0-.6,1.83-.64,2.04"/>
  <path class="cls-2" d="M83.87,67.3c0-1.43.03-2.83.09-4.18.09-2.15.25-4.2.48-6.15,0-.09.02-.19.03-.28,1.35-11.33,4.83-19.41,8.85-25.15.43-.61.86-1.2,1.29-1.75.65-.83,1.3-1.6,1.97-2.31,2.79-3.03,5.63-5.13,8.07-6.56,1.26-.74,2.41-1.29,3.38-1.71.79-.34,1.46-.58,1.99-.75,0,0,1.39-.29,3.11-.5.13-.02.26-.03.4-.05.41-.05.83-.09,1.26-.11"/>
  <path class="cls-8" d="M186.73,18.73c-10.25-1.03-27.64-1.39-36.75-1.6-7.6-.17-26.52.12-35.19.59-.05,0-.09,0-.13,0"/>
  <path class="cls-8" d="M232.24,25.83v-.03c-.05-.75-2.1-1.42-2.1-1.42"/>
  <path class="cls-2" d="M114.8,17.8l2.76.73,22.17,5.87s9.14,2.49,13.03,3.14c3.89.66,13.03,1.09,18.69,1.24,5.14.13,12.03.09,19.3-.06,15.87-.33,33.58-1.15,39.03-1.68.6-.06,1.06-.17,1.4-.29.93-.34,1.05-.84,1.07-.94v-.02"/>
  <path class="cls-8" d="M50.1,16.91c10.21-.54,34.46-1.71,56.8-1.86"/>
  <path class="cls-6" d="M16.76,67.43s.02-1.13-.24-1.82h-1.99s-1.71.36-1.71,1.82"/>
  <path class="cls-6" d="M185.55,19.94c1.06,1.11,3.05,3.56,6.22,8.69"/>
  <path class="cls-6" d="M184.2,19.82s1.67.99,6.55,8.9c.01.02.02.03.03.05"/>
  <path class="cls-8" d="M214.16,67.42v-26.88c0-4.44,5.2-3.92,5.2-3.92l32.54,1.18s4.15.79,4.93,8.98c.78,8.18,1.25,15.97,1.25,20.46"/>
  <path class="cls-2" d="M128.98,13.16s0,.01,0,.02c-.34.94-1.29,1.61-2.39,1.61h-4.02c-1.4,0-2.54-1.09-2.54-2.43,0-.4.1-.77.28-1.1,0,0,.93-1.21,2.27-2.79,1.41-1.64,3.28-3.68,5.03-5.13.55-.47,1.1-.87,1.61-1.18"/>
  <path class="cls-2" d="M134.87,9.32l-.37.95c-1.1,2.59-1.84,2.68-1.84,2.68l-3.69.22-5.98.36c-.99,0-1.79-.76-1.79-1.71,0-.11.02-.23.04-.34,0,0,.83-2.54,3.94-5.81.8-.84,1.59-1.62,2.43-2.32,2.4-1.98,5.17-3.21,9.65-2.87,0,0,1.36-.25-.4,3.81l-1.98,5.03Z"/>
  <path class="cls-6" d="M215.69,33.05c.09,0,.14,0,.14,0"/>
  <path class="cls-6" d="M211.49,35.87c.57-2.4,2.74-2.79,3.78-2.83"/>
  <path class="cls-8" d="M142.79,32.38s37.81,2.15,68.51,4.23"/>
  <path class="cls-2" d="M215.69,33.05s.05,0,.05,0l40.31,1.55s1.09.06,1.37,1.28c.28,1.23,3.09,11.88,3.09,31.54"/>
  <path class="cls-6" d="M215.27,33.05c.2-.01.34,0,.42,0"/>
  <path class="cls-2" d="M211.35,67.31v-30.17s0-.01,0-.01c0-.18,0-.36.02-.52.02-.27.06-.51.11-.74.56-2.47,2.8-2.8,3.78-2.83"/>
  <path class="cls-2" d="M108.06,19.25s.32.09.91.26c3.23.93,14.41,4.11,22.49,6.41,4.65,1.32,8.28,2.34,8.75,2.45,1.25.29,2.37.9,2.07,3.96-.05.45-.12.95-.23,1.51-.91,4.6-3.1,10.42-3.1,33.58"/>
  <path class="cls-8" d="M37.27,29.39c-6.83,1.3-14.29.72-14.72-3.99-.4-4.35,5.17-9.84,12.86-11.84,2.3-.6,4.52-.82,6.55-.75"/>
  <path class="cls-2" d="M42.04,12.8c3.11.03,5.59,1.27,6.47,3.57.2.51.3,1.05.33,1.61.04,1.03-.21,2.12-.7,3.2-1.21,2.68-3.93,5.33-7.52,7-1.88.88-3.78,1.38-5.52,1.52-.02,0-.04,0-.06,0-.15.01-.29.02-.43.02-3.44.17-6.55-.96-7.49-3.43-1.46-3.82,1.78-9.17,7.6-11.88,2.3-1.07,5.2-1.64,7.25-1.63.02,0,.04,0,.07,0Z"/>
  <path class="cls-6" d="M185.94,19.99l.02-.02c.07-.09.39-.45.8-1,.05-.06.1-.12.14-.19,1.27-1.67,3.33-4.71,3.33-6.94,0,0,.16-.92-2.16-.97-.14,0-.3,0-.46,0"/>
  <path class="cls-6" d="M50.42,6.37c-2.34.91-7.67,2.97-8.9,3.44-1.59.6-2.73.32-2.73.32l-.21-.08"/>
  <path class="cls-2" d="M113.15,17.95s-4.36-4.3-8.41-9.23"/>
  <path class="cls-8" d="M186.95,18.81s16.41,1.28,25.95,2.63c9.55,1.36,14.36,2.15,17.25,2.94"/>
  <path class="cls-8" d="M113.55,18.02s26.34,7.63,30.64,8.69c4.29,1.05,14.36,2.8,20.26,3.02,5.91.22,42.83,1.42,50.77,1.6,5.09.11,25.69,1.08,40.85,1.82,8.51.41,15.31.74,16.69.8"/>
  <path class="cls-2" d="M134.91,9.33s4.21.1,10.06.25c7.12.18,16.66.42,24.05.62l15.35.54c1.17.05,1.97.14,3.25.14,0,0,6.48.18,12.13-2.37,4.55-2.22,3.69-1.87,5.31-2.12,1.71-.26,8.1-.48,10.59-.48s31.06-.01,40.27.32"/>
  <path class="cls-2" d="M244.48,6.07s11.78,4.91,17.03,7.21c.07.03.14.06.21.09,3.8,1.67,8.49,3.78,12.01,5.44"/>
  <path class="cls-2" d="M43.41,6.58c1.6-.11,3.61-.16,5.02-.18.77-.02,1.36-.02,1.59-.02"/>
  <path class="cls-3" d="M43.41,6.58c-3.89.34-8.68,1.35-12.87,2.63,0,0-4.98,1.67-7.27,3.5s-3.97,3.42-3.97,3.42c0,0-.93,1.28-1.67,2.57s-2.26,3.93-2.26,3.93l-.87,1.59"/>
  <path class="cls-8" d="M213,20.82s1.37-1.2,2.74-2.34c2.22-1.84,4.6-3.25,8.06-4.27,3.46-1.03,13.07-1.35,19.02,0,5.95,1.34,15.87,4.03,28.25,9.24"/>
  <path class="cls-8" d="M233.55,25.72s19.67.76,36.75,4.11"/>
  <path class="cls-2" d="M255.99,6.22c-.38-.44-1.04-.89-2.15-.96-2.18-.13-13.48-.32-21.23-.32-7.31,0-15.53,0-18.82.35-1.25.13-2.05.43-2.54.71"/>
  <path class="cls-2" d="M273.14,26.72c-.66,1.68-.44,2.94-.36,4.24s.49,3.48.55,4.12"/>
  <line class="cls-7" x1="273.61" y1="33.95" x2="275.21" y2="34.06"/>
  <path class="cls-7" d="M39.58,14.29c2.37.02,4.25,1.01,4.92,2.88.15.42.23.86.25,1.31.03.84-.17,1.72-.55,2.61-.94,2.19-3.02,4.35-5.76,5.73-1.44.72-2.88,1.13-4.21,1.26-.02,0-.03,0-.04,0-.11,0-.22.02-.33.02-2.62.15-4.76-.85-5.47-2.85-1.1-3.1,1.62-7.42,6.07-9.65,1.76-.88,3.52-1.31,5.08-1.31.02,0,.03,0,.05,0Z"/>
  <path class="cls-7" d="M29.09,25l9.28-1.19s.14-3.17.65-5.56l-6.45-.73"/>
  <path class="cls-7" d="M39.12,26.14s-.41-1.23-.27-2.89.54-5.29.54-5.29c0,0,1.04-2.09,3.84-2.25"/>
  <path class="cls-7" d="M39.73,19.42s2.25-1.73,4.59-1.3"/>
  <path class="cls-7" d="M39.63,18.57s1.26-2.04,4.19-1.76"/>
  <path class="cls-7" d="M39.13,23.39s.24,1.02,1.44,1.84"/>
  <path class="cls-7" d="M39.44,23.03s.77.99,1.76,1.38"/>
  <path class="cls-7" d="M39.75,22.79s.77.92,2.12,1.29"/>
  <path class="cls-7" d="M39.99,19.83s1.18-1.17,3.09-1.07"/>
  <path class="cls-7" d="M39.77,18.85s1.94-1.92,4.02-1.64"/>
  <path class="cls-2" d="M255.93,6.23s3.85.02,5.68.26,3.8,1.2,6.06,1.83,8.95,2.31,10.44,2.84c0,0,4.26,1.05,6.86,2.88,2.79,1.96,4.55,4.78,5.44,6.53"/>
  <path class="cls-3" d="M262.63,13.74s4.97-.38,10.13,2.02c2.3,1.07,4.42,1.91,6.63,3.02"/>
  <path class="cls-6" d="M224.38,26.2c-.08-.6-2.31-.96-2.31-.96-11.29-1.92-24.5-3.27-25.62-3.37s-.96.45-.96.45l1.64,5.03s.16.67,1.44.61,14.17-.35,24.43-1.19c0,0,1.44-.1,1.38-.58Z"/>
  <g>
    <path class="cls-6" d="M93.16,84.33c.74,2.84,2.49,9.34,3.24,11.93l.65-.14c-1.58-5.49-3.21-11.9-4.59-17.62-2.08-8.59-3.61-15.61-3.61-15.61l-.65.14s1.52,6.99,3.6,15.55"/>
    <path class="cls-6" d="M92.12,81.94s1.16,5.82,1.4,7.72c0,0,.25,2.21.55,4.9.05.4.09.79.12,1.17.21,2.18.29,3.94.29,3.94l.11,1.7s.26.4.24.88-.2,2.61-.2,2.61"/>
    <path class="cls-2" d="M94.62,93.4s1.06,5.34,1.42,7.09c.05.25.09.43.1.5l.18.56s.44.63.3,1.49c-.13.86-.59,2.48,0,4.1"/>
    <path class="cls-2" d="M94.62,93.49v-.09s-.18-1.14-.18-1.14c-.41-3.22-.94-6.11-1.3-7.93-.24-1.24-.41-1.97-.41-1.97,0,0-.28-.19-.52-.41-.02-.02-.03-.03-.05-.05-.14-.13-.25-.26-.28-.37-.08-.32-.51-2.53-.51-2.53l.29-.34.14-.03.54-.11"/>
    <line class="cls-8" x1="95.71" y1="101.02" x2="94.62" y2="93.49"/>
    <line class="cls-6" x1="91.58" y1="79" x2="92.01" y2="78.94"/>
    <line class="cls-6" x1="92.32" y1="78.6" x2="92.16" y2="78.8"/>
    <line class="cls-6" x1="92.14" y1="79.15" x2="92.83" y2="82.12"/>
    <path class="cls-6" d="M96.43,39.34l1.18-2.74-.51-.28s-.49-.28-.71.19c-.21.47-.92,1.97-.92,1.97l-.14.89-1.03,2.13.05.03.24.14.09.12.03.05.83-1.76.63-.72h.26Z"/>
    <line class="cls-6" x1="96.14" y1="39" x2="97.09" y2="36.73"/>
    <path class="cls-6" d="M94.35,41.54s-1.11,2.27-5.02,11.46c-.42.98-.87,2.03-1.35,3.18,0,0-3.34,6.59-3.79,7.43"/>
    <path class="cls-6" d="M94.68,41.79s-.87,1.79-3.81,8.61c-.56,1.32-1.2,2.82-1.93,4.53-.2.48-.41.98-.63,1.49l.04.28s-1.29,5.06-1.57,5.99c-.28.94-.56,1.91-.87,2.24"/>
    <line class="cls-6" x1="85.97" y1="63.04" x2="88.17" y2="56.71"/>
    <path class="cls-6" d="M97.34,36.29c1.76-3.86,3.71-8.03,5.59-11.85l.46.18c-2.37,4.8-4.84,10.15-6.91,14.74-2.88,6.39-5,11.33-5,11.33l-.43-.2"/>
    <path class="cls-6" d="M85.97,64.35s-.07.22-.16.56c-.11.45-.23,1.13-.2,1.82.06,1.22.16,2.65.26,3.07.09.42.15,1.01.04,1.38-.11.38-.37.76-.95.71-.57-.05-.73-.37-.73-.37"/>
    <line class="cls-6" x1="85.12" y1="62.96" x2="85.61" y2="63.29"/>
    <path class="cls-6" d="M85.73,63.5s-.28.55.11.82"/>
    <path class="cls-6" d="M85.53,70.96c-.05.4-.38.7-.73.66-.35-.05-.6-.4-.55-.8.05-.41.37-.7.73-.66.35.04.6.4.55.8Z"/>
    <path class="cls-8" d="M94.03,95.76s-6.26-12.42-6.26-28.44"/>
    <path class="cls-8" d="M87.77,67.18c0-1.42.05-2.81.14-4.17.19-2.86.56-5.57,1.03-8.07.12-.66.25-1.31.39-1.94,1.85-8.6,4.7-14.26,4.7-14.26,0,0,1.55-3.39,2.32-4.7,0,0,2.45-5.09,6.55-9.62,1.74-1.93,3.78-3.75,6.05-5.04"/>
    <path class="cls-8" d="M95.91,102.03s-.48,1.99-.3,3.86"/>
    <line class="cls-8" x1="94.95" y1="101.46" x2="95.82" y2="101.42"/>
    <path class="cls-8" d="M84.42,77.68s.01,0,.03.02c.2.15,1.35,1.02,1.78,1.29.47.29.76.61.87,1.29s2.38,11.44,5.22,16.31c0,0,.63.97.7,1.93.06.95.32,3.82.3,4.61v.04"/>
    <path class="cls-8" d="M93.57,67.26v-3.95c0-.86.46-1.34.68-1.76.22-.41.26-.94.26-.94,1.75-18.74,12.75-35.92,12.75-35.92,0,0,1.05-1.55,3.16-1.55s8.08.75,13.99,2.28c2.24.59,4.55,1.21,6.63,1.81,3.41.99,6.2,1.89,7.05,2.34,1.37.73,2.36,1.37,1.84,3.98-.53,2.6-2.51,14.95-2.6,22.8,0,0,.15,1.3-1.22,1.57-1.37.26-4.99,1.14-4.99,1.14,0,0-1.55.41-1.64,2.25-.09,1.84-.11,2.08-.12,2.49,0,0-.05,1.01-.88,1.15-.66.11-2.22.31-2.22.31,0,0-1.11.19-1.14.91-.02.58-.04,1.1-.04,1.1"/>
    <path class="cls-8" d="M84.42,56.84s.01,0,.03-.02c.2-.15,1.35-1.02,1.78-1.29.47-.29.76-.61.87-1.29s2.38-11.44,5.22-16.31c0,0,.63-.97.7-1.93.06-.95.32-3.82.3-4.61v-.04"/>
    <path class="cls-8" d="M93.57,67.31v3.95c0,.86.46,1.34.68,1.76.22.41.26.94.26.94,1.75,18.74,12.75,35.92,12.75,35.92,0,0,1.05,1.55,3.16,1.55s8.08-.75,13.99-2.28c2.24-.59,4.55-1.21,6.63-1.81,3.41-.99,6.2-1.89,7.05-2.34,1.37-.73,2.36-1.37,1.84-3.98-.53-2.6-2.51-14.95-2.6-22.8,0,0,.15-1.3-1.22-1.57-1.37-.26-4.99-1.14-4.99-1.14,0,0-1.55-.41-1.64-2.25-.09-1.84-.11-2.08-.12-2.49,0,0-.05-1.01-.88-1.15-.66-.11-2.22-.31-2.22-.31,0,0-1.11-.19-1.14-.91-.02-.58-.04-1.1-.04-1.1"/>
  </g>
  <path class="cls-2" d="M170.54,10.31s.45.67,2.89.77,11.42.45,11.42.45c0,0,.99-.06,1.03-.67"/>
  <path class="cls-2" d="M280.87,13.9s2.62,2.33,4.61,3.44c1.98,1.11,6.71,4.26,8.11,6.3s10.29,11.06,10.29,43.8"/>
  <path class="cls-2" d="M296.18,27.37s1.84,1.17,2.6,2.92,1.46,5.05,1.78,7.64"/>
  <path class="cls-2" d="M303.38,54.71s.2.36.58.63.1.63-.44.71"/>
  <path class="cls-2" d="M144.67,9.57s28-1.56,35.08-1.68,12.11-.23,19.23.93"/>
  <path class="cls-7" d="M84.48,56.68s-39.85,1.6-71.06,3.94c0,0-2.27.23-2.04-1.92s.76-7.06,2.1-13.71c0,0,.23-1.71,3.62-2.92,3.15-1.12,28.35-8.98,31.21-9.74"/>
  <path class="cls-9" d="M18.64,43.35s-.44,5.13-1.72,15.4c0,0-.26,1.02-1.17,1.11s-2.57.06-2.57.06c0,0-1.28.06-1.2-1.28s.85-7.35,2.01-13.27c0,0,.52-2.19,3.21-2.33l1.11-.03s.33-.02.32.35Z"/>
  <path class="cls-3" d="M32.4,10.1s-9.22,3.23-13.77,8.91-7.51,9.53-8.59,11.2-4.67,6.88-5.33,8.83-3.61,12.17-3.61,28.4"/>
  <path class="cls-3" d="M35.63,7.85s-6.57.27-9.53,1.94-5.76,3.54-7.89,6.46-6.96,8.91-14.12,21.12c0,0-.54.78-.56,1.57s-.02,1.38-.29,2.59S.43,53.83.43,67.43"/>
  <path class="cls-3" d="M290.34,36.83s-9.65-.7-10.97-.79-21.2-1.02-21.2-1.02l-.06-.44s19.89.93,21.2,1.02,10.97.79,10.97.79l.06.44Z"/>
  <path class="cls-3" d="M279.46,36.08c.19.61.36,1.03.36,1.03,0,0,.01.36.8.42l10.56.82s.66.04.55-.48-.23-1.14-.35-1.36-.35-.5-1.18-.57-10.08-.82-10.08-.82c0,0-.82-.1-.79.48"/>
  <path class="cls-3" d="M266.31,19.01s8.69-.06,16.62.15c0,0,1.95.15,3.18.5s2.19.7,2.77.93,2.57,1.25,2.57,1.25c0,0,.39.3.39.55v.25s-.1.19-.47.17-6.88-.58-8.87-.82-8.67-1.03-11.02-1.32-4.69-.7-5.35-.8c0,0-.47-.08-.47-.27s.02-.33.02-.33c0,0,0-.23.62-.27Z"/>
  <path class="cls-7" d="M265.98,19.34s4.37.58,13.36,1.56c0,0,9.76,1.19,12.17,1.4"/>
  <path class="cls-3" d="M276.1,36.08c.96,3.43,4.47,16.78,4.47,31.28"/>
  <path class="cls-3" d="M270.45,20.59s4.26,9.45,4.58,10.3.58,1.49.55,2.01-.04,1.21.26,2.29"/>
  <path class="cls-3" d="M289.12,22.63s5.42,9.62,7.23,18.02,3.14,16.55,3.14,26.71"/>
  <path class="cls-3" d="M258.38,35.43s12.16.85,13.85,1.17,4.4,1.28,5.05,4.14"/>
  <path class="cls-3" d="M279.93,55.91s.12,1.31-1.17,1.4-11.08-.35-11.08-.35c0,0-.15-4.08-.15-4.26s-.15-.52-.15-.52c0,0-.38-7.41-1.95-14.93,0,0,.06-.5-.13-.77l-.15-.48"/>
  <path class="cls-7" d="M265.74,36.86l5.28.57s2.68.22,3.28,2.6,1.55,5.53,3.06,15.5c0,0,.1,1.06-.92,1.05s-6.87-.03-6.87-.03"/>
  <path class="cls-7" d="M265.7,36.43s5.02.47,5.86.64,2.74.44,3.38,2.77,1.81,6.91,2.89,15.6c0,0,.15,1.46-.83,1.52s-6.69.09-6.69.09"/>
  <path class="cls-7" d="M267.36,39.94s.19-.23,1.17-.19,3.5.33,3.85.43.58.35.68.51"/>
  <path class="cls-7" d="M267.48,44.68s.17-.39.62-.37,4.57.41,5,.47.86.19.87.47"/>
  <path class="cls-7" d="M267.94,49.31s.1-.41.74-.37,2.64.1,5.39.41c0,0,.78.06.84.37"/>
  <line class="cls-7" x1="267.69" y1="52.11" x2="274.9" y2="52.55"/>
  <path class="cls-7" d="M267.98,56.33s.6-.47,1.98-.51,5.46.02,6.57.04"/>
  <path class="cls-7" d="M265.75,37.39s4.08.93,7.17,1.52"/>
  <path class="cls-3" d="M258.17,35.03s3.4,9.69,3.4,32.33"/>
  <path class="cls-3" d="M264.71,36.1s.15.29.15.73.12.87.26,1.55,2.53,12.7,2.53,28.98"/>
  <path class="cls-7" d="M292.85,30.27s7.46,7.97,7.46,37.09"/>
  <path class="cls-2" d="M231.12,108.23c-.54.55-2.03.93-2.03.93-1.02.21-2.03.4-3.05.6-7.74,1.54-29.74,3.95-40.08,4.99-.07.01-.14.02-.21.02-.19.02-.38.04-.57.06-10.32.99-27.18,1.49-36.12,1.7-6.56.15-22.35-.22-31.49-.3"/>
  <path class="cls-2" d="M50.02,128.34c.14,0,.28.01.4.02,1.04.03,1.75.05,1.75.05,3.32.17,9.1.41,16.64.23,7.54-.18,17.3.04,21.3-.13,0,0,4.7-.04,6.57-.66s3.03-1.11,4.14-1.39,2.16-.38,3.75-.43c1.87-.14,4.48-.12,6.06-.19,3.98-.19,11.5-.1,11.5-.1"/>
  <path class="cls-2" d="M104.63,113.85c-5.11-.13-11.64-1.05-11.64-1.05-21.57-3.41-43.28-8.81-58.61-13.29-11.97-3.49-20.08-6.03-20.84-6.31,0,0-.88-.26-1.27-.55s-.77-.66-1.01-1.59c0,0-2.49-8.85-2.49-23.75"/>
  <path class="cls-6" d="M48.54,128.34c-.05,0-.11-.01-.17-.02-.77-.12-1.98-.63-1.98-.63-2.24-.79-5.06-1.87-7.83-2.99-2.21-.89-4.38-1.8-6.21-2.6-3.78-1.67-5.05-3.21-9.65-8.92-4.48-5.55-9.52-18.3-9.52-18.3,0,0-.6-1.83-.64-2.04"/>
  <path class="cls-2" d="M83.87,67.42c0,1.43.03,2.83.09,4.18.09,2.15.25,4.2.48,6.15,0,.09.02.19.03.28,1.35,11.33,4.83,19.41,8.85,25.15.43.61.86,1.2,1.29,1.75.65.83,1.3,1.6,1.97,2.31,2.79,3.03,5.63,5.13,8.07,6.56,1.26.74,2.41,1.29,3.38,1.71.79.34,1.46.58,1.99.75,0,0,1.39.29,3.11.5.13.02.26.03.4.05.41.05.83.09,1.26.11"/>
  <path class="cls-8" d="M186.73,115.99c-10.25,1.03-27.64,1.39-36.75,1.6-7.6.17-26.52-.12-35.19-.59-.05,0-.09,0-.13,0"/>
  <path class="cls-8" d="M232.24,108.89v.03c-.05.75-2.1,1.42-2.1,1.42"/>
  <path class="cls-2" d="M114.8,116.92l2.76-.73,22.17-5.87s9.14-2.49,13.03-3.14c3.89-.66,13.03-1.09,18.69-1.24,5.14-.13,12.03-.09,19.3.06,15.87.33,33.58,1.15,39.03,1.68.6.06,1.06.17,1.4.29.93.34,1.05.84,1.07.94v.02"/>
  <path class="cls-8" d="M50.1,117.81c10.21.54,34.46,1.71,56.8,1.86"/>
  <path class="cls-6" d="M16.76,67.29s.02,1.13-.24,1.82h-1.99s-1.71-.36-1.71-1.82"/>
  <path class="cls-6" d="M185.55,114.78c1.06-1.11,3.05-3.56,6.22-8.69"/>
  <path class="cls-6" d="M184.2,114.9s1.67-.99,6.55-8.9c.01-.02.02-.03.03-.05"/>
  <path class="cls-8" d="M214.16,67.3v26.88c0,4.44,5.2,3.92,5.2,3.92l32.54-1.18s4.15-.79,4.93-8.98c.78-8.18,1.25-15.97,1.25-20.46"/>
  <path class="cls-2" d="M128.98,121.56s0-.01,0-.02c-.34-.94-1.29-1.61-2.39-1.61h-4.02c-1.4,0-2.54,1.09-2.54,2.43,0,.4.1.77.28,1.1,0,0,.93,1.21,2.27,2.79,1.41,1.64,3.28,3.68,5.03,5.13.55.47,1.1.87,1.61,1.18"/>
  <path class="cls-2" d="M134.87,125.4l-.37-.95c-1.1-2.59-1.84-2.68-1.84-2.68l-3.69-.22-5.98-.36c-.99,0-1.79.76-1.79,1.71,0,.11.02.23.04.34,0,0,.83,2.54,3.94,5.81.8.84,1.59,1.62,2.43,2.32,2.4,1.98,5.17,3.21,9.65,2.87,0,0,1.36.25-.4-3.81l-1.98-5.03Z"/>
  <path class="cls-6" d="M215.69,101.67c.09,0,.14,0,.14,0"/>
  <path class="cls-6" d="M211.49,98.85c.57,2.4,2.74,2.79,3.78,2.83"/>
  <path class="cls-8" d="M142.79,102.34s37.81-2.15,68.51-4.23"/>
  <path class="cls-2" d="M215.69,101.67s.05,0,.05,0l40.31-1.55s1.09-.06,1.37-1.28c.28-1.23,3.09-11.88,3.09-31.54"/>
  <path class="cls-6" d="M215.27,101.67c.2.01.34,0,.42,0"/>
  <path class="cls-2" d="M211.35,67.41v30.17s0,.01,0,.01c0,.18,0,.36.02.52.02.27.06.51.11.74.56,2.47,2.8,2.8,3.78,2.83"/>
  <path class="cls-2" d="M108.06,115.47s.32-.09.91-.26c3.23-.93,14.41-4.11,22.49-6.41,4.65-1.32,8.28-2.34,8.75-2.45,1.25-.29,2.37-.9,2.07-3.96-.05-.45-.12-.95-.23-1.51-.91-4.6-3.1-10.42-3.1-33.58"/>
  <path class="cls-8" d="M37.27,105.33c-6.83-1.3-14.29-.72-14.72,3.99-.4,4.35,5.17,9.84,12.86,11.84,2.3.6,4.52.82,6.55.75"/>
  <path class="cls-2" d="M42.04,121.92c3.11-.03,5.59-1.27,6.47-3.57.2-.51.3-1.05.33-1.61.04-1.03-.21-2.12-.7-3.2-1.21-2.68-3.93-5.33-7.52-7-1.88-.88-3.78-1.38-5.52-1.52-.02,0-.04,0-.06,0-.15-.01-.29-.02-.43-.02-3.44-.17-6.55.96-7.49,3.43-1.46,3.82,1.78,9.17,7.6,11.88,2.3,1.07,5.2,1.64,7.25,1.63.02,0,.04,0,.07,0Z"/>
  <path class="cls-6" d="M185.94,114.73l.02.02c.07.09.39.45.8,1,.05.06.1.12.14.19,1.27,1.67,3.33,4.71,3.33,6.94,0,0,.16.92-2.16.97-.14,0-.3,0-.46,0"/>
  <path class="cls-6" d="M50.42,128.35c-2.34-.91-7.67-2.97-8.9-3.44-1.59-.6-2.73-.32-2.73-.32l-.21.08"/>
  <path class="cls-2" d="M113.15,116.77s-4.36,4.3-8.41,9.23"/>
  <path class="cls-8" d="M186.95,115.91s16.41-1.28,25.95-2.63c9.55-1.36,14.36-2.15,17.25-2.94"/>
  <path class="cls-8" d="M113.55,116.7s26.34-7.63,30.64-8.69c4.29-1.05,14.36-2.8,20.26-3.02,5.91-.22,42.83-1.42,50.77-1.6,5.09-.11,25.69-1.08,40.85-1.82,8.51-.41,15.31-.74,16.69-.8"/>
  <path class="cls-2" d="M134.91,125.39s4.21-.1,10.06-.25c7.12-.18,16.66-.42,24.05-.62l15.35-.54c1.17-.05,1.97-.14,3.25-.14,0,0,6.48-.18,12.13,2.37,4.55,2.22,3.69,1.87,5.31,2.12,1.71.26,8.1.48,10.59.48s31.06.01,40.27-.32"/>
  <path class="cls-2" d="M244.48,128.65s11.78-4.91,17.03-7.21c.07-.03.14-.06.21-.09,3.8-1.67,8.49-3.78,12.01-5.44"/>
  <path class="cls-2" d="M43.41,128.14c1.6.11,3.61.16,5.02.18.77.02,1.36.02,1.59.02"/>
  <path class="cls-3" d="M43.41,128.14c-3.89-.34-8.68-1.35-12.87-2.63,0,0-4.98-1.67-7.27-3.5s-3.97-3.42-3.97-3.42c0,0-.93-1.28-1.67-2.57s-2.26-3.93-2.26-3.93l-.87-1.59"/>
  <path class="cls-8" d="M213,113.9s1.37,1.2,2.74,2.34c2.22,1.84,4.6,3.25,8.06,4.27,3.46,1.03,13.07,1.35,19.02,0,5.95-1.34,15.87-4.03,28.25-9.24"/>
  <path class="cls-8" d="M233.55,109s19.67-.76,36.75-4.11"/>
  <path class="cls-2" d="M255.99,128.5c-.38.44-1.04.89-2.15.96-2.18.13-13.48.32-21.23.32-7.31,0-15.53,0-18.82-.35-1.25-.13-2.05-.43-2.54-.71"/>
  <path class="cls-2" d="M273.14,108c-.66-1.68-.44-2.94-.36-4.24s.49-3.48.55-4.12"/>
  <line class="cls-7" x1="273.61" y1="100.77" x2="275.21" y2="100.66"/>
  <path class="cls-7" d="M39.58,120.43c2.37-.02,4.25-1.01,4.92-2.88.15-.42.23-.86.25-1.31.03-.84-.17-1.72-.55-2.61-.94-2.19-3.02-4.35-5.76-5.73-1.44-.72-2.88-1.13-4.21-1.26-.02,0-.03,0-.04,0-.11,0-.22-.02-.33-.02-2.62-.15-4.76.85-5.47,2.85-1.1,3.1,1.62,7.42,6.07,9.65,1.76.88,3.52,1.31,5.08,1.31.02,0,.03,0,.05,0Z"/>
  <path class="cls-7" d="M29.09,109.72l9.28,1.19s.14,3.17.65,5.56l-6.45.73"/>
  <path class="cls-7" d="M39.12,108.58s-.41,1.23-.27,2.89.54,5.29.54,5.29c0,0,1.04,2.09,3.84,2.25"/>
  <path class="cls-7" d="M39.73,115.3s2.25,1.73,4.59,1.3"/>
  <path class="cls-7" d="M39.63,116.15s1.26,2.04,4.19,1.76"/>
  <path class="cls-7" d="M39.13,111.33s.24-1.02,1.44-1.84"/>
  <path class="cls-7" d="M39.44,111.69s.77-.99,1.76-1.38"/>
  <path class="cls-7" d="M39.75,111.93s.77-.92,2.12-1.29"/>
  <path class="cls-7" d="M39.99,114.89s1.18,1.17,3.09,1.07"/>
  <path class="cls-7" d="M39.77,115.87s1.94,1.92,4.02,1.64"/>
  <path class="cls-2" d="M255.93,128.49s3.85-.02,5.68-.26c1.83-.24,3.8-1.2,6.06-1.83,2.26-.63,8.95-2.31,10.44-2.84,0,0,4.26-1.05,6.86-2.88,2.79-1.96,4.55-4.78,5.44-6.53"/>
  <path class="cls-3" d="M262.63,120.98s4.97.38,10.13-2.02c2.3-1.07,4.42-1.91,6.63-3.02"/>
  <path class="cls-6" d="M224.38,108.52c-.08.6-2.31.96-2.31.96-11.29,1.92-24.5,3.27-25.62,3.37s-.96-.45-.96-.45l1.64-5.03s.16-.67,1.44-.61,14.17.35,24.43,1.19c0,0,1.44.1,1.38.58Z"/>
  <path class="cls-2" d="M170.54,124.41s.45-.67,2.89-.77,11.42-.45,11.42-.45c0,0,.99.06,1.03.67"/>
  <path class="cls-2" d="M280.87,120.82s2.62-2.33,4.61-3.44,6.71-4.26,8.11-6.3,10.29-11.06,10.29-43.8"/>
  <path class="cls-2" d="M296.18,107.35s1.84-1.17,2.6-2.92,1.46-5.05,1.78-7.64"/>
  <path class="cls-2" d="M303.38,80.01s.2-.36.58-.63.1-.63-.44-.71"/>
  <path class="cls-2" d="M144.67,125.15s28,1.56,35.08,1.68c7.08.12,12.11.23,19.23-.93"/>
  <path class="cls-7" d="M84.48,78.04s-39.85-1.6-71.06-3.94c0,0-2.27-.23-2.04,1.92s.76,7.06,2.1,13.71c0,0,.23,1.71,3.62,2.92,3.15,1.12,28.35,8.98,31.21,9.74"/>
  <path class="cls-10" d="M18.64,91.37s-.44-5.13-1.72-15.4c0,0-.26-1.02-1.17-1.11s-2.57-.06-2.57-.06c0,0-1.28-.06-1.2,1.28s.85,7.35,2.01,13.27c0,0,.52,2.19,3.21,2.33l1.11.03s.33.02.32-.35Z"/>
  <path class="cls-3" d="M32.4,124.61s-9.22-3.23-13.77-8.91-7.51-9.53-8.59-11.2-4.67-6.88-5.33-8.83-3.61-12.17-3.61-28.4"/>
  <path class="cls-3" d="M35.63,126.87s-6.57-.27-9.53-1.94-5.76-3.54-7.89-6.46-6.96-8.91-14.12-21.12c0,0-.54-.78-.56-1.57s-.02-1.38-.29-2.59S.43,80.89.43,67.29"/>
  <path class="cls-3" d="M290.34,97.89s-9.65.7-10.97.79-21.2,1.02-21.2,1.02l-.06.44s19.89-.93,21.2-1.02,10.97-.79,10.97-.79l.06-.44Z"/>
  <path class="cls-3" d="M279.46,98.64c.19-.61.36-1.03.36-1.03,0,0,.01-.36.8-.42l10.56-.82s.66-.04.55.48-.23,1.14-.35,1.36-.35.5-1.18.57-10.08.82-10.08.82c0,0-.82.1-.79-.48"/>
  <path class="cls-3" d="M266.31,115.71s8.69.06,16.62-.15c0,0,1.95-.15,3.18-.5s2.19-.7,2.77-.93,2.57-1.25,2.57-1.25c0,0,.39-.3.39-.55v-.25s-.1-.19-.47-.17-6.88.58-8.87.82-8.67,1.03-11.02,1.32-4.69.7-5.35.8c0,0-.47.08-.47.27s.02.33.02.33c0,0,0,.23.62.27Z"/>
  <path class="cls-7" d="M265.98,115.38s4.37-.58,13.36-1.56c0,0,9.76-1.19,12.17-1.4"/>
  <path class="cls-3" d="M276.1,98.64c.96-3.43,4.47-16.78,4.47-31.28"/>
  <path class="cls-3" d="M270.45,114.13s4.26-9.45,4.58-10.3.58-1.49.55-2.01-.04-1.21.26-2.29"/>
  <path class="cls-3" d="M289.12,112.09s5.42-9.62,7.23-18.02,3.14-16.55,3.14-26.71"/>
  <path class="cls-3" d="M258.38,99.29s12.16-.85,13.85-1.17,4.4-1.28,5.05-4.14"/>
  <path class="cls-3" d="M279.93,78.81s.12-1.31-1.17-1.4-11.08.35-11.08.35c0,0-.15,4.08-.15,4.26s-.15.52-.15.52c0,0-.38,7.41-1.95,14.93,0,0,.06.5-.13.77l-.15.48"/>
  <path class="cls-7" d="M265.74,97.86l5.28-.57s2.68-.22,3.28-2.6,1.55-5.53,3.06-15.5c0,0,.1-1.06-.92-1.05s-6.87.03-6.87.03"/>
  <path class="cls-7" d="M265.7,98.29s5.02-.47,5.86-.64,2.74-.44,3.38-2.77,1.81-6.91,2.89-15.6c0,0,.15-1.46-.83-1.52s-6.69-.09-6.69-.09"/>
  <path class="cls-7" d="M267.36,94.78s.19.23,1.17.19,3.5-.33,3.85-.43.58-.35.68-.51"/>
  <path class="cls-7" d="M267.48,90.04s.17.39.62.37,4.57-.41,5-.47.86-.19.87-.47"/>
  <path class="cls-7" d="M267.94,85.41s.1.41.74.37,2.64-.1,5.39-.41c0,0,.78-.06.84-.37"/>
  <line class="cls-7" x1="267.69" y1="82.61" x2="274.9" y2="82.17"/>
  <path class="cls-7" d="M267.98,78.39s.6.47,1.98.51,5.46-.02,6.57-.04"/>
  <path class="cls-7" d="M265.75,97.33s4.08-.93,7.17-1.52"/>
  <path class="cls-3" d="M258.17,99.69s3.4-9.69,3.4-32.33"/>
  <path class="cls-3" d="M264.71,98.61s.15-.29.15-.73.12-.87.26-1.55,2.53-12.7,2.53-28.98"/>
  <path class="cls-7" d="M292.85,104.45s7.46-7.97,7.46-37.09"/>
  <polyline class="cls-7" points="275.33 44.47 274.46 44.49 275.68 50.51 276.54 50.53"/>
  <polyline class="cls-7" points="275.33 90.25 274.46 90.23 275.68 84.21 276.54 84.19"/>
</svg>