<?xml version="1.0" encoding="utf-8"?>
<svg xmlns="http://www.w3.org/2000/svg" xmlns:xlink="http://www.w3.org/1999/xlink" version="1.1" id="Ebene_1" x="0px" y="0px" viewBox="0 0 306.73 137.02" style="enable-background:new 0 0 306.73 137.02;">
<style type="text/css">
	.st0{fill:none;stroke:#000000;stroke-width:0.8504;stroke-linecap:round;stroke-linejoin:round;stroke-miterlimit:10;}
	.st1{fill:none;stroke:#000000;stroke-width:0.2835;stroke-linecap:round;stroke-linejoin:round;stroke-miterlimit:10;}
	.st2{fill:none;stroke:#000000;stroke-width:0.4252;stroke-linecap:round;stroke-linejoin:round;stroke-miterlimit:10;}
	.st3{fill:none;stroke:#000000;stroke-width:0.5669;stroke-linecap:round;stroke-linejoin:round;stroke-miterlimit:10;}
	.st4{fill:none;stroke:#000000;stroke-width:0.1984;stroke-linecap:round;stroke-linejoin:round;stroke-miterlimit:10;}
</style>
<g>
	<path class="st0" d="M298.43,39.14c-0.95-5.01-3.16-7.76-4.65-9.09c-0.01-0.01-0.01-0.02-0.01-0.02c-0.85-0.76-1.46-1.05-1.46-1.05&#xA;		v-0.01c-0.87-1.61-1.82-2.51-4.14-4.84c-1.38-1.39-3.36-2.98-5.31-4.36c-1.52-1.06-3.01-2-4.18-2.62&#xA;		c-2.67-1.41-11.81-4.73-13.34-5.3c-1.52-0.57-2.7-0.66-5.45-0.95c-2.6-0.28-9.8-0.6-14.58-0.62c-0.26-0.01-0.5-0.01-0.74-0.01&#xA;		c-2.43,0-9.99,0.03-17.09,0.05c-6.8,0.03-13.17,0.07-14.16,0.08c-2.02,0.04-3.55,0.35-5.72,0.77c-2.17,0.41-3.97,0.72-6.56,0.84&#xA;		c-2.54,0.11-26.17-0.19-36.8-0.2c-0.22,0-0.43,0-0.63,0c-10.29,0-38.15-0.07-38.15-0.07l-0.05-0.03c1.56-2.51,3.02-5.02,3.19-5.34&#xA;		c0.06-0.13,0.09-0.24,0.1-0.33c0.01-0.27-0.16-0.41-0.26-0.52C128.3,5.38,128,5.46,128,5.46l-0.06-0.22c0,0-1.01-0.36-2.9-0.36&#xA;		c-1.35,0-2.51,0.25-3.45,0.58c-0.09,0.03-0.18,0.07-0.27,0.11c-0.28,0.1-0.54,0.22-0.78,0.33c-1.24,0.61-1.89,1.1-1.89,1.1&#xA;		c-1.62,1.15-3.4,3.27-4.59,4.85l-0.05-0.04l-14.72,0.25l-0.64,0.19l-0.11,0.07c-0.02-0.03-0.04-0.05-0.05-0.07l-0.05-1.01&#xA;		c0,0,0.05-0.63-0.86-0.63c-0.91,0-0.91,0-0.91,0s-0.55,0.06-1.09,0.43c-0.13,0.09-0.27,0.19-0.41,0.29l-0.01-0.01&#xA;		c-1.12-0.1-3.85-0.57-6.17-0.78c-2.33-0.21-4.73-0.24-7.67-0.24c-2.95,0-15.61-0.09-19.76-0.09c-3.52,0-8.97,0-10.53,0&#xA;		c0,0-1.8-0.02-3.68-0.03c-1.59,0-3.23,0-3.88,0.03c-1.43,0.07-4.58,0.39-6.44,0.97c-1.85,0.57-3.68,1.07-5.3,1.68&#xA;		c-1.63,0.6-4.66,1.3-7.76,3.75c-3.03,1.73-4.86,4.13-7.64,7.81c-2.78,3.68-6.08,9.31-6.08,9.31c-0.53,0.94-0.81,1.78-0.96,2.46&#xA;		c-0.01,0.01-0.01,0.02-0.01,0.02c-0.23,1.06-0.15,1.72-0.15,1.72c-0.43,1.01-0.87,2.29-1.21,3.84C6.95,46.26,5.08,52.8,5.07,68.55&#xA;		c0,0.02,0,0.05,0,0.07C5.08,84.37,6.95,90.91,7.92,95.4c0.34,1.54,0.77,2.83,1.21,3.84c0,0-0.09,0.67,0.15,1.73&#xA;		c0,0,0,0.01,0.01,0.02c0.15,0.68,0.44,1.52,0.96,2.45c0,0,3.3,5.63,6.08,9.31c2.78,3.68,4.61,6.09,7.64,7.81&#xA;		c3.1,2.46,6.13,3.16,7.76,3.76c1.62,0.6,3.45,1.1,5.3,1.67c1.86,0.58,5.01,0.91,6.44,0.97c0.65,0.03,2.29,0.03,3.88,0.03&#xA;		c1.88-0.01,3.68-0.03,3.68-0.03c1.56,0,7.01,0,10.53,0c4.15,0,16.81-0.09,19.76-0.09c2.94,0,5.34-0.02,7.67-0.23&#xA;		c2.32-0.22,5.05-0.69,6.17-0.79l0.01-0.01c0.14,0.1,0.28,0.2,0.41,0.29c0.54,0.37,1.09,0.43,1.09,0.43s0,0,0.91,0&#xA;		c0.91,0,0.86-0.63,0.86-0.63l0.05-1c0.02-0.02,0.03-0.05,0.05-0.08l0.11,0.07l0.64,0.19l14.72,0.25l0.05-0.04&#xA;		c1.19,1.58,2.97,3.7,4.59,4.85c0,0,0.65,0.49,1.89,1.11c0.24,0.12,0.5,0.23,0.79,0.33c0.08,0.04,0.17,0.07,0.26,0.1&#xA;		c0.94,0.34,2.1,0.58,3.45,0.58c1.89,0,2.9-0.36,2.9-0.36l0.06-0.21c0,0,0.3,0.07,0.44-0.07c0.1-0.11,0.27-0.26,0.26-0.52&#xA;		c-0.01-0.09-0.04-0.2-0.1-0.32c-0.17-0.33-1.63-2.84-3.19-5.35l0.05-0.03c0,0,27.86-0.07,38.15-0.07c0.2,0,0.41,0,0.63,0&#xA;		c10.63-0.01,34.26-0.31,36.8-0.19c2.59,0.11,4.39,0.42,6.56,0.84c2.17,0.41,3.7,0.72,5.72,0.76c0.99,0.02,7.36,0.05,14.16,0.08&#xA;		c7.1,0.03,14.66,0.05,17.09,0.05c0.24,0,0.48,0,0.73,0h0.01c4.78-0.03,11.98-0.35,14.58-0.63c2.75-0.28,3.93-0.38,5.45-0.95&#xA;		c1.53-0.57,10.67-3.89,13.34-5.3c1.13-0.6,2.56-1.49,4.02-2.51c0,0,0.01-0.01,0.04-0.03c1.98-1.39,4.02-3.01,5.43-4.43&#xA;		c2.32-2.33,3.26-3.24,4.13-4.84h0.01c0,0,0.61-0.3,1.46-1.07c0,0,0,0,0.01-0.01c1.49-1.33,3.7-4.09,4.65-9.1&#xA;		c1.48-7.88,3.25-15.95,3.25-29.42c0-0.01,0-0.03,0-0.04C301.68,55.09,299.91,47.02,298.43,39.14z"/>
	<path class="st1" d="M85.7,52.47c-1.13,4.85-1.84,10.17-1.84,15.87"/>
	<path class="st1" d="M86.61,48.96c-0.14,0.48-0.27,0.97-0.4,1.46"/>
	<path class="st2" d="M98.59,24.53c-2.25,3.01-6,8.65-9.15,16.3"/>
	<path class="st3" d="M104.15,19.94c0,0-1.95,0.37-3.42,1.97"/>
	<path class="st1" d="M90.34,68.35c0-23.17,11.74-41.01,11.74-41.01s2.12-3.89,9.66-2.23c7.55,1.66,15.32,3.54,18.24,4.52&#xA;		c2.91,0.97,4.29,2.17,3.15,6.8c-1.14,4.63-2.97,14.07-2.97,21.95c0,0,0,0.43-0.6,0.63c-0.6,0.2-4.37,1.37-5,1.63&#xA;		c-0.63,0.26-1.46,0.91-1.51,2c-0.06,1.09-0.2,2.46-0.2,2.46s0.09,0.49-0.63,0.71c-0.71,0.23-1.97,0.51-2.29,0.66&#xA;		c-0.31,0.14-1,0.45-1,1.8"/>
	<path class="st1" d="M112.57,25.3c0,0-3.66-0.54-5.63-0.03c-0.44,0.11-0.84,0.22-1.23,0.34c-1.35,0.43-2.4,1.06-3.4,2.89&#xA;		c-1.29,2.34-10.12,19.81-10.75,34.5c0,0-0.08,0.57-0.3,0.99c-0.23,0.42-0.84,1.45-0.84,2.44s0,1.83,0,1.83"/>
	<line class="st1" x1="105.71" y1="25.62" x2="132.99" y2="31.98"/>
	<path class="st1" d="M106.83,25.88c0,0-11.56,16.49-11.56,42.56"/>
	<path class="st3" d="M227.57,68.33c0-23.5-1.14-31.96-1.14-31.96s0.08-1.55,2.26-1.55c2.17,0,15.52,0.56,31.76,2.34&#xA;		c0,0,5.11,0.57,6.56,0.99c1.45,0.42,3.85,0.99,5.07,4.5c1.22,3.51,4.42,11.74,4.42,25.61"/>
	<path class="st1" d="M240.05,68.31V56.53c0,0,0-1.53-1.68-2.25c-1.68-0.73-5.45-2.25-5.45-2.25s-0.72-0.31-0.8-1.49&#xA;		c-0.08-1.18-0.23-6.6-0.61-10.52c0,0-0.31-2.17,1.68-2.1c1.98,0.08,9.79,0.53,21.38,1.56c0,0,2.13,0.27,2.86,2.52&#xA;		c0.72,2.25,4.04,12.37,4.04,26.26"/>
	<path class="st3" d="M260.44,37.17c0,0,5.89,10.64,5.89,31.05"/>
	<path class="st3" d="M260.47,37v-0.51c0,0,0.03-0.29,0.37-0.74c0.34-0.46,2.46-2.66,3.03-3.14c0.57-0.48,1.86-1.23,3.72-1.17&#xA;		c1.86,0.06,10.75,0.69,17.89,1.54l0.73,0.19"/>
	<path class="st1" d="M273.2,31.96c0,0,7.79,12.44,7.79,36.38"/>
	<path class="st3" d="M98.47,124.78l-0.06,1c0,0,0.06,0.63-0.86,0.63c-0.91,0-0.91,0-0.91,0s-0.54-0.06-1.08-0.43&#xA;		c-0.55-0.37-1.09-0.92-1.92-0.86c-0.83,0.06-6.57,0.66-7.89,0.51c0,0-0.41-0.1,0.05-0.18c0,0,6.82-0.48,7.76-0.53&#xA;		C94.49,124.87,96.86,124.73,98.47,124.78z"/>
	<path class="st1" d="M95.44,124.69c-0.08-0.52-1.49-0.87-7.01-0.53c-3.45,0.21-6.21,0.86-6.17,1.4c0.04,0.54,2.86,0.76,6.3,0.56&#xA;		c2.77-0.16,4.75-0.45,5.86-0.77"/>
	<path class="st1" d="M104.33,116.94"/>
	<path class="st3" d="M98.47,124.78c0.72-1.08,5.85-7.84,5.85-7.84c-4.72-0.9-8.25-3.85-8.25-3.85S81.27,100.4,81.27,68.38"/>
	<path class="st1" d="M95.83,112.98c0,0-8.35-0.11-11.24-0.57c-2.9-0.46-18.41-3.03-30.42-6.12c-12-3.09-22.47-6.4-27.1-8&#xA;		c-4.63-1.6-9.46-3.12-10.95-3.66"/>
	<path class="st1" d="M35.19,115.52"/>
	<path class="st3" d="M121.32,131.46c0,0-1.94-1.29-2.93-2.29c-2.45-2.48-4.77-5.99-4.77-5.99c-0.93-1.39-0.2-2.2-0.2-2.2&#xA;		c0.43-0.7,2.19-0.65,2.19-0.65c4.18,0.04,5.99,0.29,6.41,0.35c0.41,0.06,1.2,1.21,1.2,1.21c2.01,2.99,5.13,8.28,5.37,8.76&#xA;		c0.24,0.49-0.01,0.7-0.16,0.84c-0.14,0.14-0.44,0.07-0.44,0.07l-0.06,0.22c0,0-1,0.36-2.9,0.36c-1.35,0-2.51-0.25-3.45-0.58&#xA;		c-0.39-0.13-0.73-0.28-1.05-0.44c-1.24-0.61-1.89-1.1-1.89-1.1c-2.79-1.98-6.03-6.85-6.03-6.85s-0.74-1.03-0.74-1.77&#xA;		c0-0.66,1.14-1.17,1.14-1.17s0.8-0.49,2.97-0.6c3.1-0.16,3.83,0.82,3.83,0.82"/>
	<path class="st1" d="M122,120.68c0,0-0.03,0.36,0.57,1.3c0.6,0.94,2.95,4.7,5.59,8.65c0,0,0.31,0.47,0.52,0.36"/>
	<path class="st1" d="M127.88,131.47c0,0-3.99-5.99-5.83-9.15"/>
	<polyline class="st3" points="98.63,124.77 99.28,124.96 113.99,125.21"/>
	<path class="st3" d="M125.44,125.29c0,0,27.86-0.08,38.15-0.08c10.29,0,34.83-0.3,37.43-0.19c2.59,0.12,4.38,0.42,6.56,0.84&#xA;		c2.17,0.42,3.7,0.72,5.72,0.76c2.02,0.04,26.51,0.13,31.25,0.13c4.75,0,12.58-0.34,15.32-0.63c2.74-0.29,3.92-0.38,5.45-0.95&#xA;		c1.53-0.57,10.67-3.88,13.34-5.3c2.67-1.41,7.04-4.51,9.49-6.98c2.48-2.49,3.39-3.35,4.31-5.18c0.92-1.83,2.85-8.43,4-14.69&#xA;		c1.03-5.6,2.21-14.21,2.21-24.6"/>
	<path class="st3" d="M292.29,108.06c0,0,4.63-2.29,6.12-10.18c1.49-7.89,3.26-15.97,3.26-29.46"/>
	<path class="st3" d="M245.24,126.77c0,0,3.16-1.9,6.86-3.05c3.7-1.15,12.58-3.77,17.11-5.87c4.53-2.09,9.26-4.69,11.82-7.43&#xA;		c2.55-2.75,4.34-4.88,5.64-7.59c1.3-2.71,6.75-12.69,6.75-34.42"/>
	<path class="st3" d="M164.22,125.21c0,0,0.34-0.17,0.66-0.69c0.31-0.51,4.09-7.12,4.09-7.12l-0.08-1.14"/>
	<path class="st1" d="M104.52,116.98c0,0,8,0.76,12.2,0.88c4.19,0.12,36.06,0.46,51.95-0.53"/>
	<path class="st1" d="M105.91,117.04c0,0,27.5-6.23,31.1-6.98c3.6-0.74,6.29-1.37,9.38-1.83c9.19-1.36,27.9-1.54,27.9-1.54&#xA;		c22.01-0.69,38.51-0.04,38.51-0.04s19.63,0.3,19.63,2.06c0,1.37-7.24,2.63-10.71,3.2c-3.47,0.57-11.28,1.87-22.64,3.12&#xA;		c-11.36,1.26-29.92,2.33-29.92,2.33"/>
	<path class="st1" d="M174.38,107.41"/>
	<path class="st3" d="M110.88,116.35c0,0,26.57,1.02,53.4-0.13c1.52-0.07,3.05-0.14,4.57-0.22c0,0,23.56-1.37,35.33-2.92&#xA;		c0,0,25.46-2.67,25.46-4.42c0-1.22-22.91-1.41-22.91-1.41s-14.86,0.15-32.09,0.15c-4.42,0-20.47,0.72-24.32,1.07&#xA;		c-3.85,0.34-11.32,1.75-14.79,2.52C132.07,111.76,110.88,116.35,110.88,116.35l-3.77,0.86l-2.78-0.27"/>
	<path class="st3" d="M164.36,116.02c0,0,3.89-3.09,7.55-8.42"/>
	<path class="st3" d="M174.11,115.46c0,0,2.71-5.03,3.66-7.93"/>
	<path class="st1" d="M165.16,115.95c0,0,4.38-3.51,7.47-8.31"/>
	<path class="st1" d="M173.43,115.53c0,0,2.71-4.88,3.66-7.93"/>
	<path class="st1" d="M136.84,104.25c0,0,20.2-1.15,34.53-1.68c14.33-0.53,49.24-1.99,54.43-2.29"/>
	<path class="st3" d="M148.92,124.93c0,0-0.88,0.01-0.88-0.16c0-0.17,0.57-0.26,1.07-0.36c0.5-0.1,3.56-0.44,5.66-0.44&#xA;		c2.1,0,5.32-0.13,5.89-0.12c0.57,0.02,1.05,0.1,1.05,0.33c0,0.23-0.63,0.47-1.42,0.51C159.51,124.73,149.64,124.96,148.92,124.93z"/>
	<path class="st3" d="M227.46,126.67c0,0,0.8-1.49,1.11-2.37c0.31-0.89,0.57-1.68,0.4-3.17c0,0,0.03-0.86-1.31-2.51&#xA;		c-1.34-1.66-4.66-5.41-5.66-6.46c0,0-0.49-0.63-0.52-1.2"/>
	<path class="st3" d="M206.3,124.24c0,0-1.43,0.06-1.45-0.17c-0.02-0.23,1.35-0.72,3.39-0.72c2.04,0,7.22,0.02,9.15,0.12&#xA;		c0,0,1.09,0.02,1.05,0.38c0,0,0.02,0.48-1.26,0.48C216.06,124.32,207.08,124.22,206.3,124.24"/>
	<path class="st3" d="M102.3,115.84c0,0,16.35-3.35,30.46-7.32c0,0,4.84-1.14,3.77-4.19c-1.07-3.05-4.73-14.63-4.73-36.06"/>
	<path class="st1" d="M86.52,87.25c-1.59-5.68-2.66-12.09-2.66-19.06"/>
	<path class="st1" d="M104.15,116.88c0,0-1.96-0.57-3.73-2.59c-1.22-1.39-8.59-10.37-13.08-24.3"/>
	<path class="st1" d="M90.34,68.19c0,23.17,11.74,41.01,11.74,41.01s2.12,3.89,9.66,2.23c7.55-1.66,15.32-3.54,18.24-4.52&#xA;		c2.91-0.97,4.29-2.17,3.15-6.8c-1.14-4.63-2.97-14.07-2.97-21.96c0,0,0-0.43-0.6-0.63c-0.6-0.2-4.37-1.38-5-1.63&#xA;		c-0.63-0.26-1.46-0.91-1.51-2c-0.06-1.09-0.2-2.46-0.2-2.46s0.09-0.48-0.63-0.71c-0.71-0.23-1.97-0.51-2.29-0.66&#xA;		c-0.31-0.15-1-0.46-1-1.8"/>
	<path class="st1" d="M112.57,111.23c0,0-3.66,0.54-5.63,0.03c-0.44-0.11-0.84-0.22-1.23-0.34c-1.35-0.43-2.4-1.06-3.4-2.88&#xA;		c-1.29-2.35-10.12-19.81-10.75-34.5c0,0-0.08-0.57-0.3-0.99c-0.23-0.42-0.84-1.45-0.84-2.44c0-0.99,0-1.83,0-1.83"/>
	<line class="st1" x1="105.71" y1="110.92" x2="132.99" y2="104.56"/>
	<path class="st1" d="M106.84,110.65c0,0-11.57-16.14-11.57-42.21"/>
	<path class="st3" d="M227.57,68.21c0,23.5-1.14,31.96-1.14,31.96s0.08,1.54,2.26,1.54c2.17,0,15.52-0.55,31.76-2.34&#xA;		c0,0,5.11-0.57,6.56-0.99c1.45-0.42,3.85-0.99,5.07-4.5c1.22-3.51,4.42-11.74,4.42-25.61"/>
	<path class="st1" d="M240.05,68.23v11.78c0,0,0,1.53-1.68,2.25c-1.68,0.72-5.45,2.25-5.45,2.25s-0.72,0.3-0.8,1.49&#xA;		c-0.08,1.18-0.23,6.59-0.61,10.52c0,0-0.31,2.17,1.68,2.1c1.98-0.08,9.79-0.53,21.38-1.56c0,0,2.13-0.27,2.86-2.52&#xA;		c0.72-2.25,4.04-12.37,4.04-26.26"/>
	<path class="st3" d="M260.44,99.37c0,0,5.89-10.64,5.89-31.04"/>
	<path class="st1" d="M234.64,68.19v13.65c0,0,0,0.45,0.53,0.3c0.53-0.15,2.56-0.95,2.56-0.95s0.99-0.57,0.99-1.91&#xA;		c0-1.33,0-11.05,0-11.05"/>
	<path class="st3" d="M260.47,99.54v0.52c0,0,0.03,0.29,0.37,0.74c0.34,0.45,2.46,2.66,3.03,3.14c0.57,0.48,1.86,1.23,3.72,1.17&#xA;		c1.86-0.06,10.75-0.69,17.89-1.54l0.89-0.23"/>
	<path class="st1" d="M273.2,104.57c0,0,7.79-12.45,7.79-36.38"/>
	<path class="st1" d="M285.83,103.07c0,0,6.97-12.46,6.97-34.65"/>
	<path class="st1" d="M287.09,102.03c0,0,2.8-0.29,4.29-0.86l1.02-0.73"/>
	<path class="st1" d="M296.98,69.31c0,0,0.63-0.02,0.63-0.39c0-0.37,0-0.5,0-0.5"/>
	<path class="st1" d="M144.07,84.49c0,0,33.25,1.16,78.14-1.12"/>
	<path class="st1" d="M17.46,83.37c0,0,22.58,3.2,58.89,3.77"/>
	<path class="st2" d="M81.92,57.86c0,0,7.24-16.16,9.68-20.09l0.57-0.57l0.25,0.08L94,34.29l-0.63-0.36h-0.59l-1.43,2.76l-0.09,0.86&#xA;		c-4.5,8.08-9.11,17.99-9.11,17.99"/>
	<line class="st2" x1="92.21" y1="36.98" x2="93.45" y2="34.46"/>
	<line class="st2" x1="92.85" y1="34.02" x2="93.35" y2="34.29"/>
	<line class="st2" x1="93.6" y1="34.34" x2="93.83" y2="34.31"/>
	<path class="st2" d="M93.42,33.95c0.26-0.61,6.11-11.02,6.11-11.02l0.02-0.07c0,0,0.46-0.83,0.56-0.96&#xA;		c0.1-0.13,0.29-0.07,0.29-0.07s0.36,0.16,0.47,0.24c0.11,0.08,0.07,0.23,0.07,0.23c-6,9.18-13.84,26.73-13.84,26.73&#xA;		s-0.11,0.09-0.34,0c-0.23-0.09-0.57-0.3-0.57-0.3"/>
	<polyline class="st4" points="86.76,47.56 87.34,47.81 87.46,47.94"/>
	<line class="st4" x1="99.62" y1="22.91" x2="100.2" y2="23.25"/>
	<path class="st2" d="M83.67,88.89l1.18-5.24l0.53,0.11l0.23,0.27c0,0-0.76,4.67-0.95,8.62"/>
	<line class="st4" x1="85.35" y1="83.95" x2="84.22" y2="90.89"/>
	<g>
		<path class="st2" d="M85,83.65c0,0,0.28-1.64,0.38-2.57c0.09-0.93,0.21-7.51,0.17-7.81c-0.04-0.3-0.44-0.99-0.44-0.99l-0.04-3.1&#xA;			l0.36-0.15l0.8,0.04l0.06,3.29l-0.3,0.33c0,0-0.1,0.27-0.1,0.49c0,0.23,0.06,6.52-0.1,7.87c-0.15,1.35-0.32,2.73-0.32,2.73"/>
		<line class="st2" x1="85.22" y1="69.22" x2="85.83" y2="69.23"/>
		<line class="st2" x1="86.14" y1="69.13" x2="86.03" y2="69.19"/>
		<line class="st4" x1="85.95" y1="69.32" x2="85.97" y2="72.46"/>
		<path class="st2" d="M85.53,68.87l0.21-16.93l-0.07-0.2l0.01-0.9c0,0,0.14-0.32,0.4-0.32c0.26,0,0.4,0.09,0.52,0.23&#xA;			c0.11,0.14,0.1,0.86,0.1,1l-0.1,0.12c0,0-0.23,13.03-0.17,17.38c0.06,4.35,0.52,12.2,0.66,14.29c0.14,2.09,0.47,4.91,0.47,4.91&#xA;			l0.09,0.15l0.1,1.03c0,0-0.05,0.23-0.2,0.26c-0.14,0.03-0.66-0.03-0.66-0.03s-0.11-0.17-0.14-0.34c-0.03-0.17-0.08-0.91-0.08-0.91&#xA;			l0.03-0.22L85.9,78.25"/>
	</g>
	<line class="st1" x1="86.73" y1="88.55" x2="87.44" y2="88.57"/>
	<line class="st4" x1="85.83" y1="51.81" x2="86.52" y2="51.8"/>
	<path class="st2" d="M16.21,68.42c0,0,0.54,1.54,1.83,1.54c1.3,0,1.42,0,1.42,0s0.42-0.05,0.42-1.55"/>
	<path class="st2" d="M16.21,68.33c0,0,0.54-1.54,1.83-1.54c1.3,0,1.42,0,1.42,0s0.42,0.05,0.42,1.56"/>
	<path class="st1" d="M122.07,68.27c0,0.43-0.34,0.77-0.77,0.77c-0.43,0-0.77-0.34-0.77-0.77c0-0.43,0.35-0.77,0.77-0.77&#xA;		C121.73,67.5,122.07,67.84,122.07,68.27z"/>
	<path class="st1" d="M173.43,119.51c0,0,19.89,1.25,53,1.22"/>
	<path class="st1" d="M230.55,120.74c0,0,24.93-0.1,41-5.21"/>
	<path class="st1" d="M227.1,113.86c11.58-1.17,29.96-3.62,56.47-8.74"/>
	<path class="st1" d="M211.33,114.93c0,0,3.09,0.02,9.82-0.53"/>
	<path class="st1" d="M232.43,110.95c0,0,10.89-0.82,31.46-5.25"/>
	<path class="st3" d="M51.01,126.81c0,0-6.13,0.06-7.56,0c-1.43-0.06-4.58-0.39-6.43-0.96c-1.85-0.58-3.68-1.08-5.31-1.68&#xA;		c-1.63-0.6-4.66-1.3-7.76-3.75c0,0-0.03-0.38,0.53-0.08c0.56,0.3,1.22,0.73,1.69,0.88c0.47,0.15,1.22,0.53,3.19,0.62&#xA;		s7.31,0.22,7.31,0.22s0.09,0.19,0.28,0.46c0.19,0.27,0.66,0.47,0.66,0.47c5.37,2.06,10.05,3.3,10.85,3.53&#xA;		c0.8,0.23,2.12,0.29,2.12,0.29s6.82,0,10.96,0c4.15,0,16.81-0.09,19.75-0.09c2.94,0,5.35-0.03,7.67-0.24&#xA;		c2.33-0.21,5.05-0.69,6.17-0.78"/>
	<line class="st4" x1="36.63" y1="122.82" x2="27.73" y2="122.33"/>
	<path class="st3" d="M36.67,122.06c0,0,0.93-0.65,0.08-2.12c-0.84-1.46-5.24-7.92-6.8-10.1c-1.56-2.18-2.1-2.97-2.89-3.74&#xA;		c-0.79-0.77-1.98-1.65-3.12-2.48s-4.1-2.74-4.71-3.14c-0.6-0.39-1.52-1.26-1.93-2.12s-5.8-10.72-5.8-29.94"/>
	<path class="st3" d="M21.51,101.98c0,0,5.51,10.1,10.88,16.94c0,0,1.28,1.48,2.2,1.78s1.87,0.59,2.5,0.67"/>
	<path class="st1" d="M24.52,104.05l3.98,6.83c0,0,0.41,0.69,1.33,0.9c0.92,0.21,1.64,0.23,1.64,0.23"/>
	<path class="st1" d="M32.31,113.23l-1.55,0.37c0,0-0.47,0.17,0,0.83c0.47,0.66,1.71,2.58,4.28,5.58c0,0,0.81,0.79,2,0.64"/>
	<path class="st3" d="M32.38,118.91c0,0-2.14,0-5.41-0.71c0,0-0.99,0-3.03-1.99c-2.04-1.99-5.16-4.51-13.23-14.23&#xA;		c0,0-1.84-2.23-2.82-6.73S5.05,84.2,5.05,68.4"/>
	<path class="st1" d="M18.37,100.59c0,0,3.01,6.53,12.77,17.83"/>
	<path class="st3" d="M9.11,99.09c0,0-0.23,1.8,1.12,4.2c0,0,3.3,5.63,6.08,9.31c2.78,3.68,4.61,6.08,7.63,7.81"/>
	<path class="st1" d="M28,105.92c0,0,17.6,4.29,27.36,5.56c9.76,1.27,20.13,2.41,32.74,3.38"/>
	<path class="st1" d="M38.54,119.61c0,0,12.01,3.59,25.76,3.21s24.33-2.47,35.59-2.14"/>
	<path class="st4" d="M9.26,100.82c0,0,4.8,6.84,13.5,15.2c0.5,0.48,1.02,0.97,1.55,1.47c0,0,0.43,0.48,2.35,0.71"/>
	<path class="st4" d="M22.76,116.02c0,0,0.7,2.33,1.91,4.4"/>
	<path class="st4" d="M24.81,117.88c0,0,2.47,2.48,3.69,3.49"/>
	<path class="st4" d="M28.74,121.37c0,0,3.02,0.09,5.58-0.4"/>
	<line class="st4" x1="23.38" y1="117.06" x2="25.56" y2="120.66"/>
	<line class="st4" x1="25.84" y1="120.66" x2="26.39" y2="120.58"/>
	<line class="st4" x1="26.56" y1="119.78" x2="26.61" y2="120.42"/>
	<line class="st4" x1="26.66" y1="120.66" x2="28.17" y2="121.32"/>
	<path class="st1" d="M44.16,125.26l-0.92,0.07c0,0-0.54,0.09,0.21,0.34c0.75,0.25,2.18,0.73,3.88,1.16"/>
	<path class="st1" d="M265.8,119.25c0,0,7.67,0.37,12.18-1.73s8.3-6.53,9.46-8.26c1.16-1.73,3.94-7.02,5.11-11.19&#xA;		s3.99-16.67,3.99-29.66"/>
	<path class="st3" d="M293.75,106.99c0,0,2.77-4.4,3.74-9.71c0.97-5.31,2.97-15.28,2.97-28.87"/>
	<path class="st3" d="M98.47,12.1l-0.06-1c0,0,0.06-0.63-0.86-0.63c-0.91,0-0.91,0-0.91,0s-0.54,0.06-1.08,0.43&#xA;		c-0.55,0.37-1.09,0.92-1.92,0.86c-0.83-0.06-6.57-0.66-7.89-0.51c0,0-0.41,0.1,0.05,0.18c0,0,6.82,0.48,7.76,0.53&#xA;		C94.49,12.01,96.86,12.15,98.47,12.1z"/>
	<path class="st1" d="M95.44,12.19c-0.08,0.52-1.49,0.87-7.01,0.53c-3.45-0.21-6.21-0.86-6.17-1.4c0.04-0.54,2.86-0.76,6.3-0.56&#xA;		c2.77,0.16,4.75,0.45,5.86,0.77"/>
	<path class="st1" d="M104.33,19.94"/>
	<path class="st3" d="M98.47,12.1c0.72,1.08,5.85,7.84,5.85,7.84c-4.72,0.9-8.25,3.85-8.25,3.85S81.27,36.48,81.27,68.5"/>
	<path class="st1" d="M95.83,23.9c0,0-8.35,0.11-11.24,0.57c-2.9,0.46-18.41,3.03-30.42,6.12c-12,3.09-22.47,6.4-27.1,8&#xA;		c-4.63,1.6-9.46,3.12-10.95,3.66"/>
	<path class="st1" d="M35.19,21.36"/>
	<path class="st3" d="M121.32,5.42c0,0-1.94,1.29-2.93,2.29c-2.45,2.48-4.77,5.99-4.77,5.99c-0.93,1.39-0.2,2.2-0.2,2.2&#xA;		c0.43,0.7,2.19,0.65,2.19,0.65c4.18-0.04,5.99-0.29,6.41-0.35c0.41-0.06,1.2-1.21,1.2-1.21c2.01-2.99,5.13-8.28,5.37-8.76&#xA;		c0.24-0.49-0.01-0.7-0.16-0.84c-0.14-0.14-0.44-0.07-0.44-0.07l-0.06-0.22c0,0-1-0.36-2.9-0.36c-1.35,0-2.51,0.25-3.45,0.58&#xA;		c-0.39,0.13-0.73,0.28-1.05,0.44c-1.24,0.61-1.89,1.1-1.89,1.1c-2.79,1.98-6.03,6.85-6.03,6.85s-0.74,1.03-0.74,1.77&#xA;		c0,0.66,1.14,1.17,1.14,1.17s0.8,0.49,2.97,0.6c3.1,0.16,3.83-0.82,3.83-0.82"/>
	<path class="st1" d="M122,16.2c0,0-0.03-0.36,0.57-1.3c0.6-0.94,2.95-4.7,5.59-8.65c0,0,0.31-0.47,0.52-0.36"/>
	<path class="st1" d="M127.88,5.41c0,0-3.99,5.99-5.83,9.15"/>
	<polyline class="st3" points="98.63,12.11 99.28,11.92 113.99,11.67"/>
	<path class="st3" d="M125.44,11.59c0,0,27.86,0.08,38.15,0.08c10.29,0,34.83,0.3,37.43,0.19c2.59-0.12,4.38-0.42,6.56-0.84&#xA;		c2.17-0.42,3.7-0.72,5.72-0.76c2.02-0.04,26.51-0.13,31.25-0.13c4.75,0,12.58,0.34,15.32,0.63c2.74,0.29,3.92,0.38,5.45,0.95&#xA;		c1.53,0.57,10.67,3.88,13.34,5.3c2.67,1.41,7.04,4.51,9.49,6.98c2.48,2.49,3.39,3.35,4.31,5.18c0.92,1.83,2.85,8.43,4,14.69&#xA;		c1.03,5.6,2.21,14.21,2.21,24.6"/>
	<path class="st3" d="M292.29,28.82c0,0,4.63,2.29,6.12,10.18c1.49,7.89,3.26,15.97,3.26,29.46"/>
	<path class="st3" d="M245.24,10.1c0,0,3.16,1.9,6.86,3.05c3.7,1.15,12.58,3.77,17.11,5.87c4.53,2.09,9.26,4.69,11.82,7.43&#xA;		c2.55,2.75,4.34,4.88,5.64,7.59c1.3,2.71,6.75,12.69,6.75,34.42"/>
	<path class="st3" d="M164.22,11.67c0,0,0.34,0.17,0.66,0.69c0.31,0.51,4.09,7.12,4.09,7.12l-0.08,1.14"/>
	<path class="st1" d="M106.9,19.69c2.7-0.23,7.07-0.59,9.81-0.66c4.19-0.12,36.06-0.46,51.95,0.53"/>
	<path class="st3" d="M104.52,19.9c0,0,0.96-0.09,2.39-0.22"/>
	<path class="st1" d="M105.91,19.84c0,0,27.5,6.23,31.1,6.98c3.6,0.74,6.29,1.37,9.38,1.83c9.19,1.36,27.9,1.54,27.9,1.54&#xA;		c22.01,0.69,38.51,0.04,38.51,0.04s19.63-0.3,19.63-2.06c0-1.37-7.24-2.63-10.71-3.2c-3.47-0.57-11.28-1.87-22.64-3.12&#xA;		c-11.36-1.26-29.92-2.33-29.92-2.33"/>
	<path class="st1" d="M174.38,29.47"/>
	<path class="st3" d="M110.88,20.53c0,0,26.57-1.02,53.4,0.13c1.52,0.07,3.05,0.14,4.57,0.22c0,0,23.56,1.37,35.33,2.92&#xA;		c0,0,25.46,2.67,25.46,4.42c0,1.22-22.91,1.41-22.91,1.41s-14.86-0.15-32.09-0.15c-4.42,0-20.47-0.72-24.32-1.07&#xA;		c-3.85-0.34-11.32-1.75-14.79-2.52C132.07,25.12,110.88,20.53,110.88,20.53l-3.98-0.84"/>
	<path class="st3" d="M164.36,20.85c0,0,3.89,3.09,7.55,8.42"/>
	<path class="st3" d="M174.11,21.42c0,0,2.71,5.03,3.66,7.93"/>
	<path class="st1" d="M165.16,20.93c0,0,4.38,3.51,7.47,8.31"/>
	<path class="st1" d="M173.43,21.35c0,0,2.71,4.88,3.66,7.93"/>
	<path class="st1" d="M136.84,32.63c0,0,20.2,1.15,34.53,1.68c14.33,0.53,49.24,1.99,54.43,2.29"/>
	<path class="st3" d="M148.92,11.95c0,0-0.88-0.01-0.88,0.16c0,0.17,0.57,0.26,1.07,0.36c0.5,0.1,3.56,0.44,5.66,0.44&#xA;		c2.1,0,5.32,0.13,5.89,0.12c0.57-0.02,1.05-0.1,1.05-0.33c0-0.23-0.63-0.47-1.42-0.51C159.51,12.15,149.64,11.92,148.92,11.95z"/>
	<path class="st3" d="M227.46,10.21c0,0,0.8,1.49,1.11,2.37c0.31,0.89,0.57,1.68,0.4,3.17c0,0,0.03,0.86-1.31,2.51&#xA;		c-1.34,1.66-4.66,5.41-5.66,6.46c0,0-0.49,0.63-0.52,1.2"/>
	<path class="st3" d="M206.3,12.64c0,0-1.43-0.06-1.45,0.17c-0.02,0.23,1.35,0.72,3.39,0.72c2.04,0,7.22-0.02,9.15-0.12&#xA;		c0,0,1.09-0.02,1.05-0.38c0,0,0.02-0.48-1.26-0.48C216.06,12.56,207.08,12.66,206.3,12.64"/>
	<path class="st3" d="M101.89,20.92c0,0,16.77,3.47,30.87,7.44c0,0,4.84,1.14,3.77,4.19c-1.07,3.05-4.73,14.63-4.73,36.06"/>
	<path class="st3" d="M260.44,37.51c0,0,5.89,10.64,5.89,31.04"/>
	<path class="st1" d="M234.64,68.69V55.04c0,0,0-0.45,0.53-0.3c0.53,0.15,2.56,0.95,2.56,0.95s0.99,0.57,0.99,1.91&#xA;		c0,1.33,0,11.05,0,11.05"/>
	<path class="st1" d="M273.2,32.31c0,0,7.79,12.45,7.79,36.38"/>
	<path class="st1" d="M285.83,33.81c0,0,6.97,12.46,6.97,34.65"/>
	<path class="st1" d="M287.09,34.85c0,0,2.8,0.29,4.29,0.86l1.04,0.74"/>
	<path class="st1" d="M296.98,67.57c0,0,0.63,0.02,0.63,0.39c0,0.37,0,0.5,0,0.5"/>
	<path class="st1" d="M144.07,52.39c0,0,33.25-1.16,78.14,1.12"/>
	<path class="st1" d="M17.46,53.51c0,0,22.58-3.2,58.89-3.77"/>
	<path class="st1" d="M173.43,17.36c0,0,19.89-1.25,53-1.22"/>
	<path class="st1" d="M230.55,16.14c0,0,24.93,0.1,41,5.21"/>
	<path class="st1" d="M227.1,23.02c11.58,1.17,29.96,3.62,56.47,8.74"/>
	<path class="st1" d="M211.33,21.95c0,0,3.09-0.02,9.82,0.53"/>
	<path class="st1" d="M232.43,25.93c0,0,10.89,0.82,31.46,5.25"/>
	<path class="st3" d="M51.01,10.07c0,0-6.13-0.06-7.56,0c-1.43,0.06-4.58,0.39-6.43,0.96c-1.85,0.58-3.68,1.08-5.31,1.68&#xA;		c-1.63,0.6-4.66,1.3-7.76,3.75c0,0-0.03,0.38,0.53,0.08c0.56-0.3,1.22-0.73,1.69-0.88c0.47-0.15,1.22-0.53,3.19-0.62&#xA;		c1.97-0.09,7.31-0.22,7.31-0.22s0.09-0.19,0.28-0.46c0.19-0.27,0.66-0.47,0.66-0.47c5.37-2.06,10.05-3.3,10.85-3.53&#xA;		c0.8-0.23,2.12-0.29,2.12-0.29s6.82,0,10.96,0c4.15,0,16.81,0.09,19.75,0.09c2.94,0,5.35,0.03,7.67,0.24&#xA;		c2.33,0.21,5.05,0.69,6.17,0.78"/>
	<line class="st4" x1="36.63" y1="14.06" x2="27.73" y2="14.55"/>
	<path class="st3" d="M36.67,14.82c0,0,0.93,0.65,0.08,2.12s-5.24,7.92-6.8,10.1c-1.56,2.18-2.1,2.97-2.89,3.74&#xA;		c-0.79,0.77-1.98,1.65-3.12,2.48s-4.1,2.74-4.71,3.14c-0.6,0.39-1.52,1.26-1.93,2.12c-0.41,0.86-5.8,10.72-5.8,29.94"/>
	<path class="st3" d="M21.51,34.9c0,0,5.51-10.1,10.88-16.94c0,0,1.28-1.48,2.2-1.78c0.92-0.3,1.87-0.59,2.5-0.67"/>
	<path class="st1" d="M24.52,32.83L28.5,26c0,0,0.41-0.69,1.33-0.9c0.92-0.21,1.64-0.23,1.64-0.23"/>
	<path class="st1" d="M32.31,23.65l-1.55-0.37c0,0-0.47-0.17,0-0.83c0.47-0.66,1.71-2.58,4.28-5.58c0,0,0.81-0.79,2-0.64"/>
	<path class="st3" d="M32.38,17.97c0,0-2.14,0-5.41,0.71c0,0-0.99,0-3.03,1.99s-5.16,4.51-13.23,14.23c0,0-1.84,2.23-2.82,6.73&#xA;		S5.05,52.68,5.05,68.48"/>
	<path class="st1" d="M18.37,36.29c0,0,3.01-6.53,12.77-17.83"/>
	<path class="st3" d="M9.11,37.79c0,0-0.23-1.8,1.12-4.2c0,0,3.3-5.63,6.08-9.31s4.61-6.08,7.63-7.81"/>
	<path class="st1" d="M28,30.96c0,0,17.6-4.29,27.36-5.56s20.13-2.41,32.74-3.38"/>
	<path class="st1" d="M38.54,17.27c0,0,12.01-3.59,25.76-3.21c13.74,0.38,24.33,2.47,35.59,2.14"/>
	<path class="st4" d="M9.26,36.06c0,0,4.8-6.84,13.5-15.2c0.5-0.48,1.02-0.97,1.55-1.47c0,0,0.43-0.48,2.35-0.71"/>
	<path class="st4" d="M22.76,20.86c0,0,0.7-2.33,1.91-4.4"/>
	<path class="st4" d="M24.81,19c0,0,2.47-2.48,3.69-3.49"/>
	<path class="st4" d="M28.74,15.51c0,0,3.02-0.09,5.58,0.4"/>
	<line class="st4" x1="23.38" y1="19.82" x2="25.56" y2="16.22"/>
	<line class="st4" x1="25.84" y1="16.22" x2="26.39" y2="16.3"/>
	<line class="st4" x1="26.56" y1="17.1" x2="26.61" y2="16.46"/>
	<line class="st4" x1="26.66" y1="16.22" x2="28.17" y2="15.56"/>
	<path class="st1" d="M44.16,11.62l-0.92-0.07c0,0-0.54-0.09,0.21-0.34s2.18-0.73,3.88-1.16"/>
	<path class="st1" d="M265.8,17.63c0,0,7.67-0.37,12.18,1.73s8.3,6.53,9.46,8.26c1.16,1.73,3.94,7.02,5.11,11.19&#xA;		s3.99,16.67,3.99,29.66"/>
	<path class="st3" d="M293.75,29.89c0,0,2.77,4.4,3.74,9.71s2.97,15.28,2.97,28.87"/>
	<path class="st1" d="M282.68,117.36c0,0,14.29-11.7,14.29-48.94"/>
	<path class="st1" d="M282.68,19.48c0,0,14.29,11.7,14.29,48.94"/>
</g>
</svg>