<?xml version="1.0" encoding="utf-8"?>
<svg xmlns="http://www.w3.org/2000/svg" id="a" viewBox="0 0 304.67 131.06">
  <defs>
    <style>.cls-1{stroke-width:.57px;}.cls-1,.cls-2,.cls-3,.cls-4{fill:none;stroke:#000;}.cls-1,.cls-3,.cls-4{stroke-linecap:round;stroke-linejoin:round;}.cls-2{stroke-miterlimit:10;}.cls-3{stroke-width:.85px;}.cls-4{stroke-width:.28px;}</style>
  </defs>
  <path class="cls-3" d="M297.41,25.32c-.91-2.08-1.84-3.29-2.45-3.99-.61-.69-2.79-1.78-2.79-1.78-3.73-2.14-5.71-2.74-5.71-2.74-1.94-1.33-4.3-2.52-6.2-3.35-2.68-1.17-8.73-2.82-11-3.36s-4.32-1.17-5.41-1.6c-1.09-.42-2.64-.63-6.08-.88-2.03-.15-6.99-.25-11.81-.32-3.35-.04-6.64-.06-8.84-.06-2.61,0-7.86.03-12.84.07-5.22.04-10.16.09-11.5.14-2.6.08-5.37.88-7.39,1.26-2.01.38-7.05.42-12.92.58-5.71.16-28.19-.46-29.51-.5h-.06c-1.03-.01-2.08-.02-3.13-.03h0c-.17-.09-.34-.15-.51-.2-1.35-.38-3.59-.46-4.57-.46-2.34,0-3.53.17-4.61.42-.19.04-.4.11-.63.18-7.7,0-15.38.05-22.39.11h0c.84-1.49,1.95-3.47,3.45-6.24,0,0,.27-.53.07-.67h0c-.2-.15-.4-.27-.4-.27l-.09.15-.34-.24.05-.17c-1.78-1.05-3.44-.94-3.44-.94,0,0-3.77-.27-8.39,4.91,0,0-1.43,1.72-2.37,3.62-10.44.15-17.68.32-18.25.33h-.03c-.1-.13-.18-.2-.18-.2,0,0-.63-.59-.84-.76-.21-.17-.62-.19-.62-.19h-8.37c-.54-.19-1.54-.42-2.35-.48-.82-.06-1.38-.06-4.11-.13-2.73-.06-14.64-.32-21.07-.32-4.4,0-12.14.16-17.41.3-2.43.06-4.33.11-5.14.15-2.58.11-3.75.23-4.59.38-.84.14-3.38.71-7.09,1.59-3.71.89-5.85,2.9-6.82,3.76s-5.23,6.75-5.23,6.75c0,0-7.46,11.1-9.02,13.89,0,0-.17.32-.42.9h0s-1.99,2.96-2.51,5.86c0,0-.07.62.27,1.21-.1.53-.19,1.08-.26,1.64,0,.02,0,.04,0,.04h0c-.04.35-.09.7-.12,1.05-.54,5.84-1.01,13.22-1.01,20.78s.47,14.94,1.01,20.78c.03.36.08.71.13,1.05h0v.04c.08.56.16,1.11.26,1.64-.34.6-.27,1.22-.27,1.22.52,2.89,2.51,5.85,2.51,5.85h0c.26.58.43.9.43.9,1.56,2.8,9.02,13.89,9.02,13.89,0,0,4.26,5.89,5.23,6.76.97.86,3.1,2.87,6.82,3.75,3.71.88,6.25,1.45,7.09,1.6.84.15,2.01.27,4.59.38.81.03,2.72.09,5.14.15,5.27.13,13.01.29,17.41.29,6.42,0,18.34-.25,21.07-.32,2.73-.07,3.29-.07,4.11-.13s1.81-.3,2.35-.48h8.37s.42-.02.62-.19c.21-.17.84-.76.84-.76,0,0,.08-.07.18-.2h.03c.57.01,7.81.18,18.25.34.95,1.9,2.37,3.62,2.37,3.62,4.63,5.21,8.4,4.94,8.4,4.94,0,0,1.66.1,3.44-.95l-.05-.17.34-.24.09.15s.19-.12.39-.26h0c.21-.15-.07-.68-.07-.68-1.5-2.77-2.6-4.75-3.45-6.24h0c7.01.07,14.7.12,22.39.11.23.07.44.14.63.18,1.08.25,2.27.42,4.61.42.97,0,3.22-.07,4.57-.45.17-.05.34-.11.51-.2,1.05-.01,2.1-.02,3.13-.03h.06c1.32-.04,23.81-.66,29.51-.5,5.87.17,10.91.2,12.92.58,2.02.38,4.79,1.18,7.39,1.26,1.33.05,6.28.1,11.5.14,4.98.04,10.22.07,12.84.07,2.2,0,5.48-.02,8.84-.06,4.82-.07,9.78-.17,11.81-.32,3.44-.25,4.99-.46,6.08-.88s3.14-1.05,5.41-1.6,8.31-2.18,11-3.36c1.9-.82,4.24-2.01,6.19-3.35h0s1.98-.6,5.71-2.74c0,0,2.18-1.09,2.79-1.78.61-.69,1.55-1.91,2.45-3.99.91-2.08,6.83-13.53,6.83-40.22s-5.93-38.14-6.83-40.22v.02Z"/>
  <path class="cls-2" d="M295.25,51.81s.05-.01.07-.02v-.05c0-.13-.02-.26-.03-.38-.02-.33-.04-.66-.07-.99-.01-.2-.03-.39-.04-.59v-.1s.08-.05.12-.04c0,.05,0,.1.01.15s0,.1.01.15v.08c.02.34.05.68.07,1.02.01.15.02.3.03.45.01.19.03.37.04.56v.06s-.08.03-.12.05c-.04.02-.08.03-.13.04-.04.01-.08.03-.12.04s-.08.03-.13.03v-.06c-.02-.21-.03-.41-.04-.61v-.02c-.01-.22-.03-.44-.05-.65-.02-.35-.05-.7-.07-1.05v-.06s0-.02.02-.02c.03-.01.06-.02.09-.03.02.03.02.07.02.1.01.14.02.28.03.42.01.16.02.33.03.49.01.21.03.43.04.64,0,.14.02.28.03.42v.05s.05,0,.07-.02v-.07c-.01-.16-.02-.32-.03-.48-.01-.21-.03-.42-.04-.63-.02-.28-.04-.55-.06-.83v-.1s.07-.04.11-.04c.01.04.01.08.02.11,0,.14.02.28.03.42,0,.15.02.3.03.46.02.34.05.68.07,1.02v.12"/>
  <path class="cls-2" d="M296.03,66.76s-.08.02-.12,0v-2.03c0-.06-.01-.09-.04-.1h-.02s-.02.02-.02.05v1.9c0,.11-.03.24-.1.24h-.1s-.07-.03-.09-.1c-.02-.06-.02-.12-.03-.19v-2.16s.08-.01.12,0v2.07s0,.05.02.05h.05v-2c0-.09.03-.15.06-.18,0,0,.02-.01.03-.02.05-.01.09-.01.14,0,.05.02.07.08.08.18v2.26"/>
  <path class="cls-2" d="M295.16,75.1c.01-.24.02-.49.04-.73v-.11c.01-.1.04-.16.07-.19.03-.02.05-.03.08-.02.08.02.16.03.24.05.02,0,.03,0,.05.03.05.04.07.13.07.26v.2c-.03.53-.05,1.06-.08,1.6v.11c-.01.15-.05.23-.12.24-.04,0-.09,0-.13-.02-.05,0-.09-.02-.14-.03-.01,0-.03,0-.04,0-.04,0-.09-.14-.08-.25,0-.11,0-.23.01-.34,0-.13.01-.26.02-.39,0-.13.01-.26.02-.38h0M295.5,76.21v-.08c.01-.28.03-.57.04-.85.01-.24.02-.48.03-.72v-.02c0-.07-.01-.11-.04-.11-.05,0-.11-.03-.17-.04h-.03s-.01.07-.01.11c0,.12,0,.24-.01.35-.01.32-.03.63-.05.95,0,.09,0,.19-.01.28v.07s.02.02.03.02c.07,0,.14.02.21.03"/>
  <path class="cls-2" d="M295.32,71.68v-.17c0-.12.01-.23.01-.34.02-.52.04-1.04.06-1.56v-.15c0-.11.04-.19.09-.21.02,0,.03,0,.04,0,.03,0,.07,0,.1,0,.04,0,.07.06.1.14,0,.02,0,.04.02.07.05-.12.11-.18.18-.17,0,.09,0,.24-.01.34-.02,0-.04.02-.06.04-.04.03-.07.09-.08.18,0,.05-.01.1-.01.15-.01.31-.03.63-.04.94,0,.14-.01.29-.01.43v.04s.08,0,.13.04c0,.1,0,.2-.01.3-.06,0-.12,0-.17-.02-.06,0-.11-.02-.17-.02s-.11,0-.17-.04M295.54,69.57v.33c-.02.46-.04.91-.06,1.37v.11s.07.02.11,0v-.11c0-.11,0-.22.01-.33.02-.41.03-.83.05-1.24v-.08s0-.04-.02-.04c-.03,0-.06-.02-.1,0"/>
  <path class="cls-2" d="M294.79,81.25c0-.1,0-.19.01-.28.01-.19.02-.39.03-.58,0-.16.02-.31.03-.47.01-.25.03-.51.04-.76v-.07c.01-.14.06-.24.12-.24s.11.02.17.04c.02,0,.04.02.05.05.03.04.04.1.04.19,0,.1,0,.2-.01.3,0,.13-.01.26-.02.39-.01.21-.03.43-.04.64,0,.17-.02.34-.03.51v.05s.09,0,.13.06c0,.1,0,.19-.01.3h-.03c-.06,0-.11-.02-.17-.04-.07-.02-.13-.04-.2-.06-.03,0-.07-.02-.11-.03M295.04,79.19v.11c-.02.33-.04.67-.06,1,0,.19-.02.39-.03.58v.08s.07.03.11.02v-.16c0-.18.02-.37.03-.55.02-.31.04-.62.05-.93v-.12s0,0-.02,0c-.03,0-.06,0-.09-.02"/>
  <path class="cls-2" d="M295.78,59.43s.1-.04.14-.02v.07c0,.18.01.37.02.55,0,.28.02.56.03.84,0,.2.01.4.02.61,0,.07,0,.14-.02.2-.01.04-.03.08-.05.09-.02,0-.04.03-.05.03-.09.01-.17.02-.26.04-.03,0-.05-.01-.08-.03-.03-.03-.05-.09-.06-.17,0-.06,0-.12-.01-.19,0-.23-.02-.47-.03-.7,0-.39-.03-.78-.04-1.17v-.07s.09-.04.13-.02v.08c0,.25.02.5.03.75.01.31.02.62.03.93v.25h.02c.06,0,.12-.02.18-.02.03,0,.04-.04.04-.11v-.19c-.01-.37-.03-.75-.04-1.12,0-.19-.01-.38-.02-.56v-.07"/>
  <path class="cls-2" d="M295.54,54.99v.06c0,.12.01.25.02.37.02.35.03.7.05,1.05v.17h.02s.08-.02.12-.03c.02,0,.03-.01.05.01,0,.1.01.19.01.3-.04.02-.09.02-.13.03s-.09.02-.13.03c-.04,0-.08.02-.12.03-.04,0-.08.03-.13.02-.01-.06-.02-.16-.02-.31.06-.03.12-.02.18-.06v-.1c-.01-.31-.03-.61-.04-.92,0-.18-.02-.35-.02-.53v-.1s-.05,0-.07,0c-.03,0-.06.02-.09.02-.01,0-.03-.01-.03-.04v-.27s.47-.11.51-.1c.01.09.02.21.02.3-.06.03-.12.02-.19.05"/>
  <path class="cls-1" d="M129.82,1.4c-1.78-1.05-3.44-.94-3.44-.94,0,0-3.78-.27-8.39,4.91,0,0-3.19,3.84-3.19,6.4,0,0-.08,1.93,3.15,1.93s4.43-.1,4.91-.17,1.53-.04,2.48-1.68c.94-1.64,2.37-4.05,5.18-9.25,0,0,.27-.52.07-.67s-.4-.26-.4-.26l-.08.15-.34-.24.05-.17h0Z"/>
  <path class="cls-4" d="M129.77,1.57s-2.72,3.92-6.45,10.6h.42s3.71-6.48,6.37-10.35"/>
  <path class="cls-4" d="M130.59,1.93c-.34-.06-3.69,5.91-3.69,5.91,0,0-3.14,5.27-2.75,5.33"/>
  <path class="cls-1" d="M114.95,12.39s-.3.12-.33.53.64.92,1.93.99,5.13-.08,5.13-.08c0,0,.95-.05,1.44-.33"/>
  <path class="cls-1" d="M159.78,8.78c1.05,0,2.09.02,3.13.03,0,0,23.7.67,29.57.5s10.91-.2,12.92-.58c2.01-.38,4.78-1.18,7.39-1.26s18.97-.21,24.34-.21,17.2.13,20.65.38c3.44.25,4.99.46,6.08.88s3.15,1.05,5.41,1.59,8.31,2.18,10.99,3.36,6.29,3.06,8.35,5.08,6.9,7.72,8.74,14.94c1.85,7.22,4.06,16.11,4.06,32.06"/>
  <path class="cls-1" d="M127.07,8.85c7.01-.07,14.69-.12,22.39-.11"/>
  <path class="cls-1" d="M97.34,9.33s7.41-.18,18.28-.34"/>
  <path class="cls-1" d="M247.68,14.49c-.03-.43-.19-.86-.54-1.28-.32-.38-.73-.67-1.16-.91-2.51-1.45-5.56-1.59-8.38-1.5-2.03.06-6.57.56-5.66,3.66.26.89.9,1.66,1.6,2.24,2.91,2.39,7.69,2.9,10.99,1.54.11-.05.22-.1.33-.16,1.28-.65,2.91-2.09,2.82-3.59h0Z"/>
  <path class="cls-1" d="M247.68,116.6c-.03.43-.19.86-.54,1.28-.32.38-.73.67-1.16.91-2.51,1.45-5.56,1.59-8.38,1.5-2.03-.06-6.57-.56-5.66-3.66.26-.89.9-1.66,1.6-2.24,2.91-2.39,7.69-2.9,10.99-1.54.11.05.22.1.33.16,1.28.65,2.91,2.09,2.82,3.59h0Z"/>
  <path class="cls-1" d="M100.94,14.98s44.14-.64,66.32.41c0,0,34.33,1.01,57.24,4.36,0,0,13.61,1.7,13.64,3.5.04,2.96-19.74,3.94-19.74,3.94,0,0-29.19,1.66-45.09,1.11s-22.14-1.11-22.14-1.11c0,0-6.14-.56-10.63-1.57-2.39-.54-37.43-9.23-37.43-9.23,0,0-.66-.18-.99-.41"/>
  <path class="cls-4" d="M104.88,16.31s26.02-.84,62.78.56c0,0,29.43.76,55.91,4.24,0,0,11.12,1.38,11.12,2.43,0,0-1.38,2.18-15.65,2.85-14.27.67-29.16,1.47-46.03,1.09,0,0-20.08-.43-28.69-2.08-14.64-2.8-30.87-7.2-39.43-9.1h0Z"/>
  <path class="cls-4" d="M121.13,16.59s2.38,2.43,3.83,4.53"/>
  <path class="cls-4" d="M124.99,21.16c-1.43-2.16-3.83-4.55-3.86-4.58l-.55-.51"/>
  <path class="cls-4" d="M121.67,16.06s2.97,3.02,4.38,5.36"/>
  <path class="cls-1" d="M173.17,28.32c-1.93-5.95-5.69-11.46-5.69-11.46,0,0-.08-.89-.23-1.46,0,0-1.52-3.96-2.84-5.25"/>
  <path class="cls-1" d="M161.7,10.07s14.88.45,20.03.62,10.24.27,19.14.31"/>
  <path class="cls-1" d="M162.96,8.81s.84.73,1.06,1.33"/>
  <path class="cls-1" d="M224.28,7.33s.25.24.67.73,2.6,3.02,2.37,4.63c-.23,1.62-.92,3.77-3.63,8.43"/>
  <line class="cls-1" x1="223.7" y1="21.12" x2="218.24" y2="27.22"/>
  <path class="cls-1" d="M245.96,7.33s2.79,1.73,6.59,3.24c3.8,1.51,6.97,2.73,10.55,3.65s9.02,2.28,12.88,4.13c3.86,1.85,6.57,3.26,8.98,5.99,1.97,2.23,3.33,4.45,3.78,5.93"/>
  <path class="cls-1" d="M264.67,14.63s3.82-.11,5.97.45,7.19,1.87,10.04,3.47c2.85,1.59,5.99,3.64,8.22,6.85,2.05,2.95,2.49,4.34,2.8,5.32"/>
  <path class="cls-1" d="M286.45,16.81s1.97.6,5.71,2.74c0,0,2.18,1.09,2.79,1.78s1.55,1.91,2.45,3.99,6.83,13.53,6.83,40.22"/>
  <path class="cls-1" d="M287.51,17.58s3.84,1.66,5.66,3.59c1.83,1.93,3.21,3.06,5.35,8.46,0,0,.25.45.39.64s.49,1.09.73,1.9c.21.72,3.24,9.38,3.89,26.72.08,2.09.12,4.31.12,6.65"/>
  <path class="cls-1" d="M231.09,65.54c0-13.76.42-22.83.74-28.62s1.78-6.21,1.78-6.21c0,0,1.01-1.01,4.53-1.01s34.46-.14,49.37.56l1.29.17s6.27,10.94,6.27,35.11"/>
  <path class="cls-4" d="M288.01,30.71s6.04,12.06,6.04,34.83"/>
  <line class="cls-1" x1="288.95" y1="30.51" x2="291.72" y2="30.8"/>
  <path class="cls-1" d="M291.72,30.9s5.6,11.11,5.6,34.65"/>
  <path class="cls-1" d="M291.88,30.9l2.79.11s2.02.07,3.05,3.83"/>
  <path class="cls-4" d="M294.78,31.28s5.09,13.4,5.09,34.26"/>
  <path class="cls-4" d="M251.18,8.89s13.47,2.22,20.14,4.07,12.05,3.05,15.57,6.46c3.02,2.92,5.54,5.58,7.72,11.29"/>
  <path class="cls-4" d="M257.53,12.48s9.82,3.59,13.22,4.81,13.26,3.94,17,12.8"/>
  <path class="cls-4" d="M236.17,29.83s3.44,6.96,3.44,35.71"/>
  <path class="cls-1" d="M275.06,29.9s5.9,6.99,5.9,35.64"/>
  <path class="cls-4" d="M276.13,29.92c1.37,2.17,5.7,10.99,5.7,35.62"/>
  <path class="cls-4" d="M206.76,19.25s1.6,3.65,2.75,7.59"/>
  <path class="cls-4" d="M208.53,19.42s1.39,2.83,2.71,7.35"/>
  <path class="cls-1" d="M204.16,11.58c.39-.53.56-.64,1.38-1.15s2.84-.49,4.22-.53,2.1.28,2.34.5.42,1.12.42,1.12c0,0,.63-.01.71-.01,1.16,0,2.41-.34,2.83-.42s.18-.28.18-.28c-2.13-2.1-4.39-1.96-4.39-1.96,0,0-2.92.07-4.92.22s-3.34.77-3.34.77l-2.41,1.15s-.38.18.17.28.95.25,2.36.31h.45Z"/>
  <path class="cls-4" d="M203.76,11.44s.85-1.26,2.13-1.44c1.27-.18,3.05-.34,4.97-.32,0,0,1.41-.02,1.78.66.2.38.27.59.38.95"/>
  <path class="cls-4" d="M204.31,11.58s3.98.16,8.06,0"/>
  <path class="cls-4" d="M12.57,47.9c11.45-1.48,34.93-4.15,68.71-6.28"/>
  <path class="cls-4" d="M4.56,49.01s2.5-.39,7.35-1.02"/>
  <path class="cls-4" d="M20.23,31.47c7.48-2.09,17.4-4.75,25.29-6.47,14.69-3.19,25.93-5.27,32.48-6.16"/>
  <path class="cls-4" d="M9.15,34.66s4.33-1.29,10.43-3"/>
  <path class="cls-1" d="M13.38,29.79s4.41-9.06,10.03-14.65c0,0,2.31-2.27,6.38-2.9.15-.02.31-.05.46-.07,3.84-.6,6.76-1.12,10.39-1.12,0,0,2.21.18,2.57,1.48.43,1.52-1.09,3.19-1.09,3.19,0,0-6.04,6.84-8.48,9.02,0,0-1.47,1.8-3.86,2.48-2.39.67-10.07,2.64-15.19,3.86,0,0-2.04.27-1.22-1.3h.01Z"/>
  <path class="cls-4" d="M14.21,30.32c-.28-.2.08-.96.08-.96,1.15-2.23,4.97-9.22,9.55-13.77.02-.02,2.23-2.14,6.04-2.72l.46-.07c.35-.05.69-.11,1.03-.16,3.35-.53,5.63-.94,8.87-.95.5,0,1.8.26,2.21,1.04.48.89-.42,2.21-.78,2.61-.07.07-6.05,6.84-8.43,8.98l-.04.03-.03.04s-1.39,1.67-3.55,2.27c-2.22.62-9.56,2.51-14.72,3.75,0,0-.47.08-.69-.07v-.02Z"/>
  <path class="cls-4" d="M23.69,27.83c-2.82.72-6.11,1.55-8.86,2.21-.03,0-.11.02-.21.02-.08,0-.13,0-.17-.02,0-.11.07-.35.15-.53,1.06-2.05,4.91-9.13,9.48-13.67.02-.02,1.95-1.86,5.61-2.42,0,0,3.39-.52,4.32-.55s1.71.13,2.14.27.88.39,1.04.59.32.63-.43,1.8-4.73,6.49-5.73,7.75-2.85,3.24-4.42,3.75-2.92.81-2.92.81h0Z"/>
  <path class="cls-1" d="M18.41,37.01s-.04-.29.13-.76.85-2.37,1.33-4.15c0,0,.17-1.06.52-1.56s.72-1.05.72-1.05"/>
  <path class="cls-1" d="M29.9,12.23s1.83-1.26,2.23-1.47.67-.48,2.01-.84,8.22-2.35,8.22-2.35"/>
  <path class="cls-1" d="M11.4,65.54c0-10.07.8-17.65.8-17.65.34-1.2.98-3.72,1.62-5.87s1.59-3.19,2.32-3.78,2.27-1.23,2.27-1.23c10.41-4.49,21.68-8.22,38.41-12.76,16.73-4.53,31.14-4.87,31.14-4.87h6.97c2.04-1.99,5.96-2.9,6.78-3.05.69-.13.4-.33.4-.33-2.08-1.33-4.3-5.71-4.47-6.15s-.48-.73-.48-.73c0,0-.63-.59-.84-.76s-.63-.19-.63-.19h-8.37c-.55-.19-1.53-.42-2.35-.48s-1.38-.06-4.11-.13-14.65-.31-21.07-.31-19.97.34-22.56.44-3.76.23-4.59.38-3.38.71-7.09,1.59-5.85,2.9-6.82,3.76-5.22,6.76-5.22,6.76c0,0-7.46,11.09-9.02,13.89,0,0-2.52,4.85-3.06,10.69s-1.01,13.23-1.01,20.78"/>
  <path class="cls-1" d="M100.72,16.55s1.39-.38,2.72-.04"/>
  <path class="cls-1" d="M4.06,34.97s-1.99,2.96-2.51,5.86c0,0-.07.62.27,1.22"/>
  <path class="cls-4" d="M1.54,43.72s1.73-6.62,5.55-12.25,9.06-13.1,11.04-15.2,5.08-4.45,10.87-5.96"/>
  <path class="cls-4" d="M30.12,11.94s-7.68,1.03-12.59,7.41-7.26,9.5-8.38,11.62c0,0-.76,1.34-.5,1.71s.39.7,2.04.28,9.32-2.43,9.32-2.43"/>
  <path class="cls-4" d="M36.88,13.62s-3.97.59-4.84.8c0,0-1.2.32-1.5,1.15s-.84,2.34-.84,2.34c0,0-.17.59.42.74"/>
  <path class="cls-4" d="M33.55,16l-2.34.78s-.42.27-.63.83-2.41,6.39-2.41,6.39c0,0-.18.46.29.64s1.02.35,1.02.35"/>
  <path class="cls-4" d="M33.46,16.39l-1.45.41s-.39.1-.56.59-.52,1.47-.52,1.47c0,0-.07.35.27.34s.57,0,.57,0l2.41-.34"/>
  <path class="cls-4" d="M36.47,14.29s-1.11.14-1.64.24-.73.6-.73.6l-1.17,2.83s-.22.53.21.52,1.4-.1,1.4-.1"/>
  <path class="cls-4" d="M33.62,14.64l-1.99.29s-.38.06-.59.62-.83,2.24-.83,2.24c0,0-.07.29.13.43"/>
  <path class="cls-4" d="M35.59,14.52l-.92,2.32s-.29.63.15.9"/>
  <path class="cls-4" d="M32.4,21.23l-2.08.39s-.64.17-.83.76-.5,1.59-.5,1.59c0,0-.08.49.25.62s.44.15.44.15"/>
  <path class="cls-4" d="M32.19,21.77s-.75.09-.95.67l-.2.59v.24"/>
  <path class="cls-4" d="M30.73,15.22l-1.05.19s-.48.07-.69.71-.92,2.72-.92,2.72c0,0-.27.63.53.6s1.29,0,1.29,0"/>
  <path class="cls-4" d="M28.82,22.3l-1.73.24s-.6.06-.91.97-.83,2.48-.83,2.48c0,0-.14.57.15.6s1.02.08,1.02.08"/>
  <path class="cls-4" d="M28.58,22.92l-.73.13s-.31.06-.53.74-.76,2.24-.76,2.24c0,0-.18.56.13.64"/>
  <path class="cls-4" d="M28.45,23.27s-.44.11-.62.69-.84,2.52-.84,2.52"/>
  <path class="cls-4" d="M28.45,19.61l-6.47,1.23s-1.02.12-1.51.93-1.23,2.05-1.23,2.05"/>
  <path class="cls-4" d="M27.91,19.08l-6.27,1.23s-1.27.08-2.14,1.61-1.17,2.07-1.17,2.07c0,0-.56.77.81.59s7.01-.98,7.01-.98"/>
  <path class="cls-4" d="M27.91,19.38c-.13.03-6.03,1.11-6.03,1.11,0,0-1.13.09-1.71,1.08s-1.21,2.03-1.21,2.03c0,0-.46.57.56.42s6.85-.94,6.85-.94"/>
  <line class="cls-4" x1="20.72" y1="22.41" x2="27.29" y2="21.46"/>
  <line class="cls-4" x1="28.6" y1="19.45" x2="27.43" y2="22.41"/>
  <line class="cls-4" x1="30.41" y1="20.59" x2="33.36" y2="20.21"/>
  <path class="cls-4" d="M137.84,29.12s12.71,2.22,27.7,2.98c14.98.76,66.57,2.1,66.57,2.1"/>
  <path class="cls-1" d="M94.93,19.38s-13.32,8.11-13.32,46.16"/>
  <path class="cls-1" d="M96.24,18.38s1.02-.19,3.27.25,17.06,3.64,37.16,8.95c0,0,1.55.36.92,2.29s-4.78,13.46-4.78,35.67"/>
  <path class="cls-4" d="M89.67,65.54c0-20.93,9.34-42.75,9.34-42.75,0,0,.78-1.59,4.03-1.18,3.25.4,5.87,1.07,8.9,1.74s20.7,4.96,20.7,4.96c0,0,2.13.58,1.68,2.54-.45,1.96-2.97,12.64-3.3,18.69,0,0-.06.48-.41.56s-1.43.31-1.43.31c0,0-.59.06-.67,1.2s-.34,5.14-.34,5.14c0,0-.04.59-.5.78s-3.5,1.51-3.5,1.51c0,0-1.2.67-1.3,1.83l-.1,1.15s-.04.59-.61.78-3.48.92-3.48.92c0,0-1.17.44-1.17,1.83"/>
  <path class="cls-1" d="M149.77,10.53c-1.06-.11-2.53-.53-2.76-.59s0-.21,0-.21c0,0,1.99-.94,3.07-1.19s2.28-.42,4.62-.42c.97,0,3.22.07,4.56.45s2.6,1.95,2.6,1.95c0,0,.19.21-.06.24s-2.46.24-3.32.22c0,0-.32-.1-.36-.35s0-.84-.6-1.08-1.72-.44-2.95-.41-2.84.04-3.76.5-1.04.88-1.04.88h0Z"/>
  <path class="cls-4" d="M158.77,10.77s-.14-.99-.78-1.29-2.06-.6-4.08-.55c-2.64.06-3.26.4-3.7.7-.28.19-.76.74-.76.74"/>
  <path class="cls-4" d="M149.93,10.6s3.79.53,8.27.39"/>
  <path class="cls-4" d="M146.48,9.84s-13.06-.23-19.61-.28"/>
  <path class="cls-2" d="M300.78,72.33s-.04-.02-.05-.05c-.03-.1-.07-.19-.1-.29-.09-.26-.18-.53-.27-.79,0-.02-.01-.05-.02-.07-.01,0,0,.02,0,.04v.04c.01.1.02.19.03.29v.04s-.06,0-.08-.04c-.02-.07-.03-.14-.04-.22-.01-.13-.03-.26-.04-.39,0-.07,0-.14-.01-.2-.01-.28-.03-.56-.02-.84,0-.11,0-.23.01-.34,0-.1.02-.19.05-.28s.08-.11.13-.05c.01.02.02.05.03.07.03.08.05.16.06.25.02.12.04.24.05.36.01.13.02.26.03.4.02.23.03.46.04.69,0,.13.01.25.02.38,0,.04.01.08.02.12.05.15.09.31.14.46.04.13.05.27.05.43h-.03ZM300.31,69.62s-.01.07-.02.11c0,.11-.01.22,0,.33v.57h.05c.04.1.07.21.11.32,0-.15-.01-.28-.02-.41-.01-.2-.02-.39-.04-.59-.01-.1-.03-.19-.05-.29,0-.02-.01-.05-.03-.05h0Z"/>
  <path class="cls-4" d="M13.88,65.54c.29-1.49,2.04-1.61,2.04-1.61h1.35s.39.18.39,1.04v.57"/>
  <path class="cls-4" d="M97.86,17.54s5.46.73,10.22,1.85,20.98,5.32,25.68,6.38,17.34,4.27,39.17,4.28c0,0,35.42.15,62.19-.35"/>
  <line class="cls-4" x1="12.93" y1="30.55" x2="8.93" y2="32.17"/>
  <path class="cls-1" d="M129.82,129.69c-1.78,1.05-3.44.94-3.44.94,0,0-3.78.27-8.39-4.91,0,0-3.19-3.84-3.19-6.4,0,0-.08-1.93,3.15-1.93s4.43.1,4.91.17,1.53.04,2.48,1.68c.94,1.64,2.37,4.05,5.18,9.25,0,0,.27.52.07.67s-.4.26-.4.26l-.08-.15-.34.24.05.17h0Z"/>
  <path class="cls-4" d="M129.77,129.52s-2.72-3.92-6.45-10.6h.42s3.71,6.48,6.37,10.35"/>
  <path class="cls-4" d="M130.59,129.16c-.34.06-3.69-5.91-3.69-5.91,0,0-3.14-5.27-2.75-5.33"/>
  <path class="cls-1" d="M114.95,118.7s-.3-.12-.33-.53.64-.92,1.93-.99,5.13.08,5.13.08c0,0,.95.05,1.44.33"/>
  <path class="cls-1" d="M159.78,122.31c1.05,0,2.09-.02,3.13-.03,0,0,23.7-.67,29.57-.5s10.91.2,12.92.58,4.78,1.18,7.39,1.26c2.6.08,18.97.21,24.34.21s17.2-.13,20.65-.38c3.45-.25,4.99-.46,6.08-.88s3.15-1.05,5.41-1.59,8.31-2.18,10.99-3.36c2.69-1.17,6.29-3.06,8.35-5.08s6.9-7.72,8.74-14.94c1.85-7.22,4.06-16.11,4.06-32.06"/>
  <path class="cls-1" d="M127.07,122.24c7.01.07,14.69.12,22.39.11"/>
  <path class="cls-1" d="M97.34,121.76s7.41.18,18.28.34"/>
  <path class="cls-1" d="M100.94,116.1s44.14.64,66.32-.41c0,0,34.33-1.01,57.24-4.36,0,0,13.61-1.7,13.64-3.5.04-2.96-19.74-3.94-19.74-3.94,0,0-29.19-1.66-45.09-1.11s-22.14,1.11-22.14,1.11c0,0-5.4.4-10.63,1.57-2.39.53-37.43,9.23-37.43,9.23,0,0-.66.18-.99.41"/>
  <path class="cls-4" d="M104.88,114.78s26.02.84,62.78-.56c0,0,29.43-.76,55.91-4.24,0,0,11.12-1.38,11.12-2.43,0,0-1.38-2.18-15.65-2.85-14.27-.67-29.16-1.47-46.03-1.09,0,0-20.08.43-28.69,2.08-14.64,2.8-30.87,7.2-39.43,9.1h0Z"/>
  <path class="cls-4" d="M121.13,114.5s2.38-2.43,3.83-4.53"/>
  <path class="cls-4" d="M124.99,109.93c-1.43,2.16-3.83,4.55-3.86,4.58l-.55.51"/>
  <path class="cls-4" d="M121.67,115.03s2.97-3.02,4.38-5.36"/>
  <path class="cls-1" d="M173.17,102.77c-1.93,5.95-5.69,11.46-5.69,11.46,0,0-.08.89-.23,1.46,0,0-1.52,3.96-2.84,5.25"/>
  <path class="cls-1" d="M161.7,121.02s14.88-.45,20.03-.62,10.24-.27,19.14-.31"/>
  <path class="cls-1" d="M162.96,122.28s.84-.73,1.06-1.33"/>
  <path class="cls-1" d="M224.28,123.76s.25-.24.67-.73,2.6-3.02,2.37-4.63c-.23-1.62-.92-3.77-3.63-8.43"/>
  <line class="cls-1" x1="223.7" y1="109.97" x2="218.24" y2="103.87"/>
  <path class="cls-1" d="M245.96,123.76s2.79-1.73,6.59-3.24c3.8-1.51,6.97-2.73,10.55-3.65s9.02-2.28,12.88-4.13c3.86-1.85,6.57-3.26,8.98-5.99,1.97-2.23,3.33-4.45,3.78-5.93"/>
  <path class="cls-1" d="M264.67,116.46s3.82.11,5.97-.45,7.19-1.87,10.04-3.47c2.85-1.59,5.99-3.64,8.22-6.85,2.05-2.95,2.49-4.34,2.8-5.32"/>
  <path class="cls-1" d="M286.45,114.28s1.97-.6,5.71-2.74c0,0,2.18-1.09,2.79-1.78s1.55-1.91,2.45-3.99,6.83-13.53,6.83-40.22"/>
  <path class="cls-1" d="M287.51,113.51s3.84-1.66,5.66-3.59c1.83-1.93,3.21-3.06,5.35-8.46,0,0,.25-.45.39-.64s.49-1.09.73-1.9c.21-.72,3.24-9.38,3.89-26.72.08-2.09.12-4.31.12-6.65"/>
  <path class="cls-1" d="M231.09,65.54c0,13.76.42,22.83.74,28.62s1.78,6.21,1.78,6.21c0,0,1.01,1.01,4.53,1.01s34.46.14,49.37-.56l1.29-.17s6.27-10.94,6.27-35.11"/>
  <path class="cls-4" d="M288.01,100.37s6.04-12.06,6.04-34.83"/>
  <line class="cls-1" x1="288.95" y1="100.58" x2="291.72" y2="100.29"/>
  <path class="cls-1" d="M291.72,100.19s5.6-11.11,5.6-34.65"/>
  <path class="cls-1" d="M291.88,100.19l2.79-.11s2.02-.07,3.05-3.83"/>
  <path class="cls-4" d="M294.78,99.81s5.09-13.4,5.09-34.26"/>
  <path class="cls-4" d="M251.18,122.19s13.47-2.22,20.14-4.07,12.05-3.05,15.57-6.46c3.02-2.92,5.54-5.58,7.72-11.29"/>
  <path class="cls-4" d="M257.53,118.61s9.82-3.59,13.22-4.81,13.26-3.94,17-12.8"/>
  <path class="cls-4" d="M236.17,101.26s3.44-6.96,3.44-35.71"/>
  <path class="cls-1" d="M275.06,101.19s5.9-6.99,5.9-35.64"/>
  <path class="cls-4" d="M276.13,101.17c1.37-2.17,5.7-10.99,5.7-35.62"/>
  <path class="cls-4" d="M206.76,111.84s1.6-3.65,2.75-7.59"/>
  <path class="cls-4" d="M208.53,111.67s1.39-2.83,2.71-7.35"/>
  <path class="cls-1" d="M204.16,119.51c.39.53.56.64,1.38,1.15s2.84.49,4.22.53,2.1-.28,2.34-.5.42-1.12.42-1.12c0,0,.63.01.71.01,1.16,0,2.41.34,2.83.42s.18.28.18.28c-2.13,2.1-4.39,1.96-4.39,1.96,0,0-2.92-.07-4.92-.22s-3.34-.77-3.34-.77l-2.41-1.15s-.38-.18.17-.28.95-.25,2.36-.31c0,0,.45,0,.45,0Z"/>
  <path class="cls-4" d="M203.76,119.65s.85,1.26,2.13,1.44,3.05.34,4.97.32c0,0,1.41.02,1.78-.66.2-.38.27-.59.38-.95"/>
  <path class="cls-4" d="M204.31,119.51s3.98-.16,8.06,0"/>
  <path class="cls-4" d="M12.57,83.18c11.45,1.48,34.93,4.15,68.71,6.28"/>
  <path class="cls-4" d="M4.56,82.08s2.5.39,7.35,1.02"/>
  <path class="cls-4" d="M20.23,99.61c7.48,2.09,17.4,4.75,25.29,6.47,14.69,3.19,25.93,5.27,32.48,6.16"/>
  <path class="cls-4" d="M9.15,96.43s4.33,1.29,10.43,3"/>
  <path class="cls-1" d="M13.38,101.3s4.41,9.06,10.03,14.65c0,0,2.31,2.27,6.38,2.9.15.02.31.05.46.07,3.84.6,6.76,1.12,10.39,1.12,0,0,2.21-.18,2.57-1.48.43-1.52-1.09-3.19-1.09-3.19,0,0-6.04-6.84-8.48-9.02,0,0-1.47-1.8-3.86-2.48s-10.07-2.64-15.19-3.86c0,0-2.04-.27-1.22,1.3h.01Z"/>
  <path class="cls-4" d="M14.21,100.77c-.28.2.08.96.08.96,1.15,2.23,4.97,9.22,9.55,13.77.02.02,2.23,2.14,6.04,2.72l.46.07c.35.05.69.11,1.03.16,3.35.53,5.63.94,8.87.95.5,0,1.8-.26,2.21-1.04.48-.89-.42-2.21-.78-2.61-.07-.07-6.05-6.84-8.43-8.98l-.04-.03-.03-.04s-1.39-1.67-3.55-2.27c-2.22-.62-9.56-2.51-14.72-3.75,0,0-.47-.08-.69.07v.02Z"/>
  <path class="cls-4" d="M23.69,103.26c-2.82-.72-6.11-1.55-8.86-2.21-.03,0-.11-.02-.21-.02-.08,0-.13,0-.17.02,0,.11.07.35.15.53,1.06,2.05,4.91,9.13,9.48,13.67.02.02,1.95,1.86,5.61,2.42,0,0,3.39.52,4.32.55s1.71-.13,2.14-.27.88-.39,1.04-.59.32-.63-.43-1.8-4.73-6.49-5.73-7.75-2.85-3.24-4.42-3.75-2.92-.81-2.92-.81h0Z"/>
  <path class="cls-1" d="M18.41,94.08s-.04.29.13.76.85,2.37,1.33,4.15c0,0,.17,1.06.52,1.56s.72,1.05.72,1.05"/>
  <path class="cls-1" d="M29.9,118.86s1.83,1.26,2.23,1.47.67.48,2.01.84,8.22,2.35,8.22,2.35"/>
  <path class="cls-1" d="M11.4,65.54c0,10.07.8,17.65.8,17.65.34,1.2.98,3.72,1.62,5.87s1.59,3.19,2.32,3.78,2.27,1.23,2.27,1.23c10.41,4.49,21.68,8.22,38.41,12.76,16.73,4.53,31.14,4.87,31.14,4.87h6.97c2.04,1.99,5.96,2.9,6.78,3.05.69.13.4.33.4.33-2.08,1.33-4.3,5.71-4.47,6.15s-.48.73-.48.73c0,0-.63.59-.84.76s-.63.19-.63.19h-8.37c-.55.19-1.53.42-2.35.48s-1.38.06-4.11.13-14.65.31-21.07.31-19.97-.34-22.56-.44c-2.58-.1-3.76-.23-4.59-.38s-3.38-.71-7.09-1.59-5.85-2.9-6.82-3.76-5.22-6.76-5.22-6.76c0,0-7.46-11.09-9.02-13.89,0,0-2.52-4.85-3.06-10.69s-1.01-13.23-1.01-20.78"/>
  <path class="cls-1" d="M100.72,114.54s1.39.38,2.72.04"/>
  <path class="cls-1" d="M4.06,96.12s-1.99-2.96-2.51-5.86c0,0-.07-.62.27-1.22"/>
  <path class="cls-4" d="M1.54,87.37s1.73,6.62,5.55,12.25,9.06,13.1,11.04,15.2c1.97,2.1,5.08,4.45,10.87,5.96"/>
  <path class="cls-4" d="M30.12,119.15s-7.68-1.03-12.59-7.41c-4.91-6.38-7.26-9.5-8.38-11.62,0,0-.76-1.34-.5-1.71s.39-.7,2.04-.28,9.32,2.43,9.32,2.43"/>
  <path class="cls-4" d="M36.88,117.47s-3.97-.59-4.84-.8c0,0-1.2-.32-1.5-1.15-.3-.83-.84-2.34-.84-2.34,0,0-.17-.59.42-.74"/>
  <path class="cls-4" d="M33.55,115.09l-2.34-.78s-.42-.27-.63-.83-2.41-6.39-2.41-6.39c0,0-.18-.46.29-.64s1.02-.35,1.02-.35"/>
  <path class="cls-4" d="M33.46,114.7l-1.45-.41s-.39-.1-.56-.59-.52-1.47-.52-1.47c0,0-.07-.35.27-.34s.57,0,.57,0l2.41.34"/>
  <path class="cls-4" d="M36.47,116.8s-1.11-.14-1.64-.24-.73-.6-.73-.6l-1.17-2.83s-.22-.53.21-.52,1.4.1,1.4.1"/>
  <path class="cls-4" d="M33.62,116.45l-1.99-.29s-.38-.06-.59-.62c-.21-.56-.83-2.24-.83-2.24,0,0-.07-.29.13-.43"/>
  <path class="cls-4" d="M35.59,116.57l-.92-2.32s-.29-.63.15-.9"/>
  <path class="cls-4" d="M32.4,109.86l-2.08-.39s-.64-.17-.83-.76-.5-1.59-.5-1.59c0,0-.08-.49.25-.62s.44-.15.44-.15"/>
  <path class="cls-4" d="M32.19,109.32s-.75-.09-.95-.67l-.2-.59v-.24"/>
  <path class="cls-4" d="M30.73,115.87l-1.05-.19s-.48-.07-.69-.71-.92-2.72-.92-2.72c0,0-.27-.63.53-.6s1.29,0,1.29,0"/>
  <path class="cls-4" d="M28.82,108.79l-1.73-.24s-.6-.06-.91-.97-.83-2.48-.83-2.48c0,0-.14-.57.15-.6s1.02-.08,1.02-.08"/>
  <path class="cls-4" d="M28.58,108.17l-.73-.13s-.31-.06-.53-.74-.76-2.24-.76-2.24c0,0-.18-.56.13-.64"/>
  <path class="cls-4" d="M28.45,107.82s-.44-.11-.62-.69-.84-2.52-.84-2.52"/>
  <path class="cls-4" d="M28.45,111.48l-6.47-1.23s-1.02-.12-1.51-.93-1.23-2.05-1.23-2.05"/>
  <path class="cls-4" d="M27.91,112.01l-6.27-1.23s-1.27-.08-2.14-1.61-1.17-2.07-1.17-2.07c0,0-.56-.77.81-.59s7.01.98,7.01.98"/>
  <path class="cls-4" d="M27.91,111.7c-.13-.03-6.03-1.11-6.03-1.11,0,0-1.13-.09-1.71-1.08s-1.21-2.03-1.21-2.03c0,0-.46-.57.56-.42s6.85.94,6.85.94"/>
  <line class="cls-4" x1="20.72" y1="108.68" x2="27.29" y2="109.63"/>
  <line class="cls-4" x1="28.6" y1="111.63" x2="27.43" y2="108.68"/>
  <line class="cls-4" x1="30.41" y1="110.5" x2="33.36" y2="110.88"/>
  <path class="cls-4" d="M137.84,101.97s12.71-2.22,27.7-2.98c14.98-.76,66.57-2.1,66.57-2.1"/>
  <path class="cls-1" d="M94.93,111.7s-13.32-8.11-13.32-46.16"/>
  <path class="cls-1" d="M96.24,112.71s1.02.19,3.27-.25,17.06-3.64,37.16-8.95c0,0,1.55-.36.92-2.29s-4.78-13.46-4.78-35.67"/>
  <path class="cls-4" d="M89.67,65.54c0,20.93,9.34,42.75,9.34,42.75,0,0,.78,1.59,4.03,1.18s5.87-1.07,8.9-1.74,20.7-4.96,20.7-4.96c0,0,2.13-.58,1.68-2.54-.45-1.96-2.97-12.64-3.3-18.69,0,0-.06-.48-.41-.56s-1.43-.31-1.43-.31c0,0-.59-.06-.67-1.2s-.34-5.14-.34-5.14c0,0-.04-.59-.5-.78s-3.5-1.51-3.5-1.51c0,0-1.2-.67-1.3-1.83l-.1-1.15s-.04-.59-.61-.78-3.48-.92-3.48-.92c0,0-1.17-.44-1.17-1.83"/>
  <path class="cls-1" d="M149.77,120.56c-1.06.11-2.53.53-2.76.59s0,.21,0,.21c0,0,1.99.94,3.07,1.19s2.28.42,4.62.42c.97,0,3.22-.07,4.56-.45s2.6-1.95,2.6-1.95c0,0,.19-.21-.06-.24s-2.46-.24-3.32-.22c0,0-.32.1-.36.35s0,.84-.6,1.08-1.72.44-2.95.41-2.84-.04-3.76-.5-1.04-.88-1.04-.88h0Z"/>
  <path class="cls-4" d="M158.77,120.32s-.14.99-.78,1.29-2.06.6-4.08.55c-2.64-.06-3.26-.4-3.7-.7-.28-.19-.76-.74-.76-.74"/>
  <path class="cls-4" d="M149.93,120.49s3.79-.53,8.27-.39"/>
  <path class="cls-4" d="M146.48,121.25s-13.06.23-19.61.28"/>
  <path class="cls-4" d="M13.88,65.54c.29,1.49,2.04,1.61,2.04,1.61h1.35s.39-.18.39-1.04v-.57"/>
  <path class="cls-4" d="M97.86,113.55s5.46-.73,10.22-1.85,20.98-5.32,25.68-6.38,17.34-4.27,39.17-4.28c0,0,35.42-.15,62.19.35"/>
  <line class="cls-4" x1="12.93" y1="100.54" x2="8.93" y2="98.92"/>
  <path class="cls-4" d="M85.72,51.39c3.82-12.53,10.58-30.57,10.58-30.57h-.7s-7.24,18.25-10.8,30.49l.92.09h0Z"/>
  <path class="cls-4" d="M87.4,89.88c-1.9-19.61-2.07-36.4-2.07-36.4l-.65.25s0,18.41,1.94,36.19l.78-.05h0Z"/>
  <path class="cls-4" d="M86.24,87.32c-1.42-6.23-2.41-13.55-2.41-21.86,0-30.84,12.38-46.41,12.38-46.41"/>
  <path class="cls-4" d="M96.17,111.79s-5.55-7.64-9.2-21.52"/>
  <polygon class="cls-4" points="86.73 45.05 81.65 61.41 81.87 56.94 88.85 37.94 88.85 36.68 89.85 33.75 90.65 33.88 86.73 45.05"/>
  <polygon class="cls-4" points="85.45 80.31 86.7 99.3 85.24 95.03 84.83 72.91 84.37 71.74 84.23 68.65 85.01 68.49 85.45 80.31"/>
  <path class="cls-4" d="M246.65,65.65v-13.1s-.06-2.18-2.52-4.03c0,0-1.57-1.06-1.57-3.81v-5.43s.11-3.25,4.2-3.25,18.36.45,24.96.73c0,0,3.08,0,3.69,2.69s2.57,9.29,2.57,26.19"/>
  <path class="cls-4" d="M246.65,65.65v13.1s-.06,2.18-2.52,4.03c0,0-1.57,1.06-1.57,3.81v5.43s.11,3.25,4.2,3.25,18.36-.45,24.96-.73c0,0,3.08,0,3.69-2.69s2.57-9.29,2.57-26.19"/>
  <path class="cls-4" d="M242.01,65.65l.17-16.43s0-.31.14-.39.39-.08.67.14,1.43,1.15,1.71,1.51.98,1.15.98,3.16v12.01"/>
  <path class="cls-4" d="M242.01,65.65l.17,16.43s0,.31.14.39.39.08.67-.14,1.43-1.15,1.71-1.51.98-1.15.98-3.16v-12.01"/>
</svg>